<?xml version="1.0" encoding="UTF-8"?>
<svg id="Layer_1" data-name="Layer 1" xmlns="http://www.w3.org/2000/svg" viewBox="0 0 792 612">
  <defs>
    <style>
      .cls-1 {
        fill: #ee2a7b;
      }

      .cls-2 {
        stroke-width: 8px;
      }

      .cls-2, .cls-3, .cls-4, .cls-5 {
        fill: none;
      }

      .cls-2, .cls-4 {
        stroke: #be1e2d;
      }

      .cls-2, .cls-4, .cls-5 {
        stroke-miterlimit: 10;
      }

      .cls-3 {
        stroke: #ee2a7b;
        stroke-linejoin: bevel;
      }

      .cls-6 {
        fill: #be1e2d;
      }

      .cls-4, .cls-5 {
        stroke-width: 2px;
      }

      .cls-5 {
        stroke: #da1c5c;
      }
    </style>
  </defs>
  <path class="cls-2" d="M247.08,19.32c47.99,57.39,94.97,117.64,95.31,186.75.44,90.1-47.66,153.87-50.38,216.87-2.47,57.2,42.14,158.89,42.14,158.89"/>
  <path class="cls-6" d="M190.34,399.42c-.56-.43-.58-.92-.68-1.34-.34-2.86.33-5.72.9-8.49,2.44-9.47,6.08-18.93,13.08-26.07,2.6-2.49,5.92-4.51,9.69-4.8,5.86-.45,11.98,3.14,13.95,8.78,3.59,10.86-3.83,24.63-8.74,34.08-3.55,6.42-7.75,12.35-12.3,17.98-3.2,4.07-5.26,8.77-7.17,13.65-2.18,5.77-3.99,11.84-5.73,18.01l-.8-.06c-.56-6.49-.15-13,1.07-19.48,1.23-6.65,3.57-13.2,7.63-18.7,3.53-5.22,7.1-10.32,10.53-15.48,4.84-7.49,9.91-15.54,10.61-24.4.52-5.43-3.63-9.61-8.8-9.68-2.47,0-5.03,1.26-7.26,3.12-4.61,3.86-7.95,9.37-10.61,14.81-2.01,4.22-3.73,8.66-4.77,13.24-.21,1.29-.71,3.01-.16,4.19,0,0-.44.66-.44.66h0Z"/>
  <path class="cls-6" d="M187.2,398.93c-3.92-4.69-9.29-10.97-15.77-11.18-2.8.04-5.08,2.44-6.15,4.82-1.13,2.65-.57,5.57.58,8.22,2.67,5.91,7.83,10.6,11.97,15.67,4.45,5.2,9.19,10.29,13.62,16.05,0,0-.42.56-.42.56-14.22-5.98-30.35-19.75-31.54-36.35-.19-6.4,5.36-13.09,12.07-12.55,4.11.41,7.22,2.96,9.91,5.68,2.52,2.64,4.59,5.57,6.32,8.7,0,0-.59.37-.59.37h0Z"/>
  <path class="cls-6" d="M126.05,506.22c4.09,5.93,8.1,11.92,12.15,17.87,1.19,1.9,3.79,2.28,5.43.82,0,0,2.09-1.71,2.09-1.71l8.19-6.75c.45-.49.51-1.23.17-1.78,0,0-.67-1.16-.67-1.16-2.67-4.51-5.55-9.49-7.83-14.18,0,0-2.27-4.74-2.27-4.74.03-.08-.09-.21-.24-.2-.14-.04-.39.32-.53.43-2.92,2.84-5.86,5.63-9.02,8.24,0,0-.3-.26-.3-.26,2.19-3.46,4.6-6.73,7.05-9.98,1.64-2.5,5.12-2.17,6.43.56,2.65,4.42,5.23,8.97,7.47,13.61,0,0,2.36,4.86,2.36,4.86.47.96,1.13,2.12,1.11,3.22.08,1.69-.79,3.3-2.18,4.22,0,0-.54.4-.54.4-2.89,2.12-6.91,5.05-9.81,7.18-2.63,2.16-7.04,1.32-8.62-1.69-3.6-6.24-7.24-12.45-10.79-18.72,0,0,.34-.21.34-.21h0Z"/>
  <path class="cls-6" d="M160.38,542.87c13.59,6.6,27.36,13.28,42.09,16.84,2,.83,4.33.8,6.22-.21,1.73-.82,3.6-3.4,4.97-4.76,0,0,10.15-11.05,10.15-11.05l1.71,3.52c-9.45,1.12-19.22,1.32-28.52-1.21-4.68-1.27-9.19-3.19-13.34-5.67-4.15-2.5-7.9-5.61-11.11-9.13l2.05-.06c-3.18,2.97-6.39,5.91-9.72,8.72,0,0-.37-.34-.37-.34,1.29-1.76,2.59-3.51,3.93-5.22,1.33-1.72,2.69-3.42,4.05-5.12.46-.57,1.3-.67,1.87-.2,10.4,8.89,23.67,13.16,37.17,14.1,4.52.37,9.1.33,13.68-.02,1.87-.18,2.97,2.24,1.62,3.52,0,0-10.62,10.6-10.62,10.6-1.79,1.64-3.78,4.25-6.11,5.21-2.45,1.35-6.79,1.07-8.32.13-7.5-2.06-14.55-5.12-21.44-8.44-6.88-3.33-13.59-6.97-20.19-10.77,0,0,.24-.44.24-.44h0Z"/>
  <path class="cls-5" d="M225.33,22.3s18.12,16.68,38.94,40.54c14.41,16.52,20.84,38.8,22.98,48.26,4.85,21.45-2.36,45.08-3.48,58.03s5.01,27.5,7.31,34.4,12.77,21.45,13.53,38.3-4.09,27.83-3.83,30.13-11.49,32.94-14.55,41.36-5.36,21.19-7.4,29.87-16.72,34.6-16.72,34.6c-23.11,36.13-59.37,62.62-84.89,81.06-22.09,15.96-31.92,26.96-35.49,30.13-6.55,10.55-10.91,20.08-8.43,30.64,10.47,11.87,32.76,30.15,69.19,39.06,7.17,1.75,61.4,10.87,62.55,12.38,10.16,2.06,20.06,5.68,29.71,10.78"/>
  <path class="cls-4" d="M431.5,22.3s95.74,40.28,196.85,126.07,140.58,165.45,140.58,165.45"/>
  <path class="cls-4" d="M311.93,22.75c40.6,24.79,204.6,90.7,258.98,145.31s82.72,148.05,122.55,238.05,69.7,116.81,79.66,132.9"/>
  <path class="cls-5" d="M260.69,22.3c6.47,8.3,28.9,30.52,39.15,37.9s39.66,31.83,57.36,34.21c23.32-.34,26.21-16.85,39.06-13.45s7.4,30.81,43.66,67.4c8.17,7.83,12.26,9.02,19.15,14.55s33.28,31.57,42.13,37.53,26.4,15.1,33.53,18.04,40.68,11.74,56.09,40.94c18.15,34.39,9.28,69.02,7.06,76.34s-2.55,21.79-4.77,31.66-14.13,28.74-14.55,41.94,6.84,26.82,20.17,39.42,57.87,72.68,71.83,88.51,41.87,42.42,48.94,44.53"/>
  <path class="cls-1" d="M386.65,54.39c6.82-1.93,10.65-7.99,11.32-14.77,0,0,1.45.08,1.45.08.36,3.35,1.26,7.27,4.16,9.22,2.84,1.7,6.79.36,8.79-2.02,1.42-1.64,2.36-3.99,2.65-6.09,0,0,2.81-.07,2.81-.07,1.4,4.87,3.74,11.99,9.49,12.5,4.69.18,9.31-1.14,13.25-3.79,0,0,.21.21.21.21-2.84,3.2-7,5.29-11.26,5.93-8.6,1.98-13.29-7.22-14.5-14.33,0,0,2.81-.07,2.81-.07-.6,2.8-1.73,5.26-3.67,7.34-2.86,3.04-8.02,4.44-11.67,2-3.41-2.46-4.33-6.91-4.55-10.8,0,0,1.45.08,1.45.08-.86,5.07-3.32,10.26-7.92,12.93-1.48.89-3.1,1.51-4.76,1.92,0,0-.08-.29-.08-.29h0Z"/>
  <path class="cls-1" d="M493.47,93.97c6.69,2.22,12.34-.8,15.87-6.58,0,0,1.48.27,1.48.27,1.18,3.78,2.75,8.09,5.55,10.86,1.3,1.26,3.06,1.54,4.93,1.2,1.83-.33,3.76-1.17,5.39-2.08l2.23.66c2.33,4.97,5.43,10.95,11.6,11.36,0,0,.03.3.03.3-1.5.41-3.18.35-4.74-.14-4.64-1.59-7.66-6.07-9.7-10.2,0,0,2.23.66,2.23.66-12.03,6.57-16.52-1.49-19.11-12.23,0,0,1.48.27,1.48.27-1.94,2.69-4.47,5.13-7.63,6.31-3.13,1.22-6.65.84-9.69-.38,0,0,.1-.28.1-.28h0Z"/>
  <path class="cls-6" d="M505.33,176.37c-2.99-1.4-6.17-2.88-7.8-6-1.09-2.41,1.18-3.71,3.26-3.52,1.76.08,3.38.61,4.94,1.21l-.86,1.28c-.97-.88-1.92-1.83-2.72-2.97-1.73-2.21-1.8-5.43,1.36-6.19,2.17-.5,4.35.06,6.33.73,0,0-1.75.93-1.75.93.69-5.41,5.68-10.9,11.44-7.26,4.23,2.97,4.79,9.15,2.8,13.48,0,0-.4-.05-.4-.05-.49-2.2-.94-4.21-1.72-5.97-2.8-6.24-7.59-6.48-9.57.39,0,0-1.75.93-1.75.93-1.64-.62-4.32-1.73-5.76-.54-.14.18-.19.57-.06,1.06.46,1.65,1.7,3.04,2.89,4.33,0,0-.86,1.28-.86,1.28-1.93-.8-4.39-1.97-6.35-1.06-1.51,1.42,1.46,4.03,2.67,5.02,1.25.98,2.64,1.81,4.07,2.55l-.17.36h0Z"/>
  <path class="cls-1" d="M443.57,243.95c13.59-16.51,23.66-35.71,30.04-56.05,0,0,2.63.14,2.63.14,3.17,11.21,13.97,18.13,25.37,18.1,11.44-.14,21.5-7.48,29.41-15.32,2.31-2.32,4.55-4.85,6.48-7.34l4.36,2.43c-3.2,9.3-5.72,19.05-7.07,28.82-1.36,9.64-1.09,19.7,3.89,28.33,3.13,5.73,7.46,10.96,12.58,15.27,0,0-.28.42-.28.42-5.88-3.58-10.91-8.47-14.75-14.22-6.17-8.78-7.26-19.9-6.18-30.32.96-10.35,3.43-20.34,7.09-30.1,0,0,4.36,2.43,4.36,2.43-2.28,2.82-4.66,5.26-7.21,7.66-8.93,8.21-20.02,15.75-32.74,15.58-12.82-.3-24.81-8.42-27.98-21.16,0,0,2.63.14,2.63.14-7.03,20.36-17.92,39.46-32.26,55.52,0,0-.38-.32-.38-.32h0Z"/>
  <path class="cls-1" d="M470.95,237.39c1.05-2.48,2.17-4.93,3.39-7.33.61-1.2.98-2.53,1.88-3.54.93-1.08,1.93-2.01,3.28-2.66,0,0,.25.16.25.16.03,4.47-3.44,7.17-5.91,10.47-.88,1.02-1.73,2.06-2.65,3.06,0,0-.25-.16-.25-.16h0Z"/>
  <path class="cls-1" d="M483.73,224.54c2.76-.85,6.9-1.41,9.76-1.99,3.24-.59,6.48-1.13,9.73-1.64,0,0,1.41.81,1.41.81,3.09,6.47,6.66,12.79,7.86,19.95.42,2.37.74,4.79.64,7.25,0,0-.39.09-.39.09-2.35-4.2-4.26-8.43-6.01-12.86-1.59-4.39-2.85-8.97-4.63-13.3,0,0,1.41.81,1.41.81-5.12.32-13.39.74-18.43,1.1-.27.02-.87.07-1.14.12,0,0-.23-.33-.23-.33h0Z"/>
  <rect class="cls-3" x="469.03" y="237.47" width="1.15" height="1.15"/>
  <rect class="cls-3" x="512.5" y="253.49" width="1.53" height="1.53"/>
  <path class="cls-1" d="M507.22,299.16c6.37-8.03,12.36-16.66,15.74-26.36,0,0,2.27.29,2.27.29,1.18,8,3.8,15.66,6.61,23.21.98,2.53,2.04,5.04,3.08,7.6l-.26.16c-7.24-8.57-11.08-19.59-11.76-30.72,0,0,2.27.29,2.27.29-4.01,9.77-10.54,18.14-17.71,25.73,0,0-.23-.2-.23-.2h0Z"/>
  <path class="cls-1" d="M532.88,299.16c2.92-3.71,5.53-7.65,7.56-11.87,2.09-4.19,3.66-8.61,5.18-13.08l2.27.29c.87,6.14,2.56,11.92,5.16,17.54.84,1.91,1.7,3.84,2.42,5.87l-.26.16c-2.92-3.2-5.48-6.6-7.28-10.59-1.79-4.01-2.03-8.45-2.37-12.72,0,0,2.27.29,2.27.29-3.43,8.83-7.98,17.54-14.71,24.32,0,0-.23-.2-.23-.2h0Z"/>
  <path class="cls-1" d="M556.58,299.13c5.91-7.33,8.52-16.17,11.32-25.06,0,0,3.03.38,3.03.38.41,2.82.91,5.62,1.52,8.39,1.73,8.07,3.52,16.85,6.41,24.6,0,0-.34.21-.34.21-5.86-6.63-8.83-15.49-9.9-24.16-.34-2.9-.59-5.8-.81-8.69l3.03.38c-3.36,8.59-7.14,17.65-13.96,24.22,0,0-.3-.26-.3-.26h0Z"/>
  <path class="cls-1" d="M500.3,323.92c5.71-7.2,12.02-13.92,17.16-21.51,1.66-2.5,3.18-5.11,4.1-7.79l3.04.53c.17,5.09,1.11,12.3,1.73,17.42.35,2.87.82,5.7,1.44,8.53.63,2.82,1.44,5.61,2.46,8.44l-.34.21c-8.2-9.39-8.91-22.68-8.42-34.56,0,0,3.04.53,3.04.53-3.96,8.71-10.94,15.17-17.43,21.91-2.16,2.19-4.34,4.35-6.47,6.56,0,0-.3-.26-.3-.26h0Z"/>
  <path class="cls-1" d="M533.76,323.26c5.54-7.07,12.07-13.77,14.86-22.5,0,0,2.27.29,2.27.29,1.45,9.62,2.12,20.25,5.98,29.28,0,0-.26.16-.26.16-5.13-5.9-7.2-13.95-7.59-21.61-.15-2.54-.28-5.07-.48-7.58l2.27.29c-3.4,8.77-10.48,15.26-16.83,21.87,0,0-.23-.2-.23-.2h0Z"/>
  <path class="cls-1" d="M516.88,316.38c-.03,2.78.13,5.63-.25,8.36-.26.9-.6,1.78-1.27,2.62l-.2-.03c-.81-1.92-.54-3.73.07-5.59.42-1.81.91-3.61,1.46-5.39,0,0,.2.03.2.03h0Z"/>
  <path class="cls-1" d="M519.87,292.4c-.03,2.78.13,5.63-.25,8.36-.26.9-.6,1.78-1.27,2.62,0,0-.2-.03-.2-.03-.81-1.92-.54-3.73.07-5.59.42-1.81.91-3.61,1.46-5.39,0,0,.2.03.2.03h0Z"/>
  <path class="cls-1" d="M543.4,318.86c-.04,2.43.11,4.94-.28,7.34-.26.78-.6,1.54-1.28,2.25,0,0-.2-.03-.2-.03-.79-1.7-.54-3.27.09-4.91.43-1.58.92-3.14,1.47-4.68,0,0,.2.03.2.03h0Z"/>
  <path class="cls-1" d="M544.35,291.03c.31,2.76.82,5.57.77,8.33-.15.92-.38,1.84-.94,2.76h-.2c-1.04-1.81-.99-3.64-.61-5.56.2-1.85.46-3.69.79-5.53,0,0,.2,0,.2,0h0Z"/>
  <path class="cls-1" d="M566.78,295.37c.1,1.75.41,4.31.16,5.96-.22.63-.51,1.26-1.14,1.84,0,0-.2-.02-.2-.02-.87-1.36-.75-2.62-.21-3.98.33-1.29.73-2.56,1.18-3.81,0,0,.2.02.2.02h0Z"/>
  <path class="cls-6" d="M400.72,324.35c1.63-5.6,3.55-11.69,5.36-17.26,0,0,2.39.2,2.39.2l1.06,3.97c.95,4.04,1.35,8.18,1.05,12.34,0,0-.29.06-.29.06-.67-1.26-1.19-2.55-1.66-3.86-1.43-3.73-2.19-8.06-2.61-12.03,0,0,2.39.2,2.39.2-.89,2.07-2.72,6.21-3.64,8.27-1.25,2.74-2.48,5.49-3.77,8.22l-.28-.11h0Z"/>
  <path class="cls-6" d="M409.27,309.45c3.59-.78,7.19-1.48,10.82-2.08,3.64-.87,7.39-1.25,11.01.01,0,0,.03.3.03.3-3.32,1.92-7.08,2.25-10.82,2.08-3.67.1-7.34.08-11.01-.01,0,0-.03-.3-.03-.3h0Z"/>
  <path class="cls-6" d="M431.25,309.15c1.66,3.11,3.25,6.25,4.88,9.38l-.54,1.04c-10.39,2.31-20.6,6.01-31.39,5.62,0,0-.06-.29-.06-.29,2.48-1.13,5.03-1.97,7.59-2.7,7.7-2.16,15.72-2.68,23.57-4.09,0,0-.54,1.04-.54,1.04-1.26-3.29-2.57-6.56-3.8-9.87,0,0,.27-.12.27-.12h0Z"/>
  <path class="cls-6" d="M429.73,309.26c-.04,1.71-.17,3.42-.4,5.11-.11.84.04,1.75-.41,2.49-.47.85-1.06,1.52-2,2.03,0,0-.29-.08-.29-.08-.51-.93-.65-1.82-.59-2.78.02-.87.64-1.56.99-2.32.72-1.55,1.53-3.05,2.41-4.52,0,0,.29.08.29.08h0Z"/>
  <path class="cls-6" d="M432.22,287.82c3.29-1.13,6.6-2.17,9.95-3.11,3.34-1.22,6.83-1.95,10.37-1.05,0,0,.06.29.06.29-2.9,2.22-6.4,2.92-9.95,3.11-3.44.45-6.9.79-10.37,1.05,0,0-.06-.29-.06-.29h0Z"/>
  <path class="cls-6" d="M425.26,295.08c1.57-2.64,3.24-5.21,4.97-7.74,0,0,2.05.19,2.05.19,1.54,2.07,2.99,4.48,3.59,7.01.24.87.43,1.76.49,2.72l-.26.14c-2.88-2.17-4.79-5.36-6-8.69,0,0,2.05.19,2.05.19-2.16,2.18-4.36,4.31-6.65,6.35,0,0-.23-.19-.23-.19h0Z"/>
  <path class="cls-6" d="M452.35,284.4c.69,2.97,1.3,5.95,1.96,8.92l-.59.85c-5.17,1.27-10.35,2.47-15.49,3.82-5.21,1.27-10.5,1.9-15.9,1.79,0,0-.06-.29-.06-.29,9.83-4.48,20.67-4.96,31.16-6.79,0,0-.59.84-.59.84-.26-3.03-.56-6.06-.78-9.1,0,0,.3-.05.3-.05h0Z"/>
  <path class="cls-6" d="M451.7,284.46c-.45,2.33-.96,4.65-1.54,6.94-.43,2.41-1.12,4.64-2.87,6.51,0,0-.19-.06-.19-.06-.3-2.53.46-4.75,1.54-6.94.89-2.2,1.85-4.36,2.87-6.51,0,0,.19.06.19.06h0Z"/>
  <path class="cls-6" d="M436.58,297.2c-2.35.28-4.72.47-7.08.56-1.18.04-2.37.36-3.52.06-1.24-.29-2.37-.73-3.41-1.59,0,0,.02-.3.02-.3,1.15-.71,2.33-.98,3.6-1.11,1.18-.14,2.32.34,3.48.54,1.16.21,2.32.44,3.47.69,1.15.28,2.31.52,3.46.84,0,0-.02.3-.02.3h0Z"/>
  <path class="cls-6" d="M440.38,319.55c5.58-2.62,13.44-6.37,18.98-8.87,0,0,1.19,1.21,1.19,1.21-2.22,5.35-4.48,10.68-6.63,16.06l-1.08.84c-7.63,1.65-15.4,2.67-23.22,2.91,0,0-.05-.3-.05-.3,1.86-.67,3.73-1.24,5.61-1.78,5.63-1.57,11.34-2.91,17.13-3.73,0,0-1.08.84-1.08.84,2.61-5.17,5.12-10.39,7.66-15.6l1.19,1.21c-3.25,1.27-6.51,2.53-9.77,3.77l-9.8,3.7s-.12-.28-.12-.28h0Z"/>
  <path class="cls-6" d="M429.47,330.82c2.58-3.99,5.53-8,8.23-11.9,0,0,2.46.66,2.46.66.23.8.44,1.61.57,2.43.36,2.54.4,5.01-.15,7.61,0,0-.3.05-.3.05-1.76-2.99-2.72-6.21-2.89-9.62,0,0,2.46.66,2.46.66-.87.84-1.7,1.71-2.52,2.59-1.43,1.53-3.56,3.67-5.05,5.17-.85.86-1.71,1.71-2.58,2.54,0,0-.23-.19-.23-.19h0Z"/>
  <path class="cls-6" d="M459.85,315.92c2.3,4.76,4.58,9.77,6.75,14.6,0,0-1.09,1.49-1.09,1.49-4.95-.04-10.39.15-15.23-.92-1.68-.33-3.35-.71-5.01-1.3l.02-.3c5.07-.97,10.22-1.02,15.3-.26,0,0,5.06.6,5.06.6l-1.09,1.49c-.76-2.25-1.83-5.4-2.55-7.62-.82-2.56-1.66-5.1-2.44-7.67l.28-.11h0Z"/>
  <path class="cls-6" d="M622.56,431.86c-3.78-6.82.49-7.95,6.41-5.8,0,0-1.22,1.22-1.22,1.22-.65-1.46-1.08-2.92-1.05-4.64-.12-3,2.93-5.53,5.93-4.76,1.89.52,3.13,1.96,4.05,3.49.43.72.77,1.39,1.09,2.24l-3.23-.09c1.91-5.74,7.31-9.36,12.7-5.1,4.22,3.42,2.64,9.86-.33,13.45,0,0-.36-.18-.36-.18.51-2.96,1-5.99-.19-8.61-.66-1.35-2.13-2.1-3.51-2.32-1.48-.15-2.6.58-3.65,1.73-.57.63-1.13,1.49-1.47,2.22l-3.23-.09c-.29-1.09-.87-2.37-1.57-3.14-.87-1.2-2.52-1.16-3.44-.09-.96,1.44-.53,3.52-.04,5.18,0,0-1.22,1.22-1.22,1.22-4.86-2.19-7.76-2.44-5.33,3.9,0,0-.36.18-.36.18h0Z"/>
  <path class="cls-1" d="M733.64,457.05c5.14-6.97,9.42-14.53,12.75-22.5,0,0,2.46.19,2.46.19,1.02,3.07,2.67,6.04,4.47,8.87,1.8,2.85,3.91,5.51,5.88,8.26,2.06,2.9,6.85,9.65,8.92,12.41,1.02,1.25,2,2.83,3.28,3.74,0,0-.07.39-.07.39-1.03-.13-1.76-.66-2.54-1.12-2.23-1.45-4.22-3.22-6.1-5.07-5.06-4.89-9.09-10.66-12.3-16.92-1.62-3.12-3.17-6.31-4.07-9.87l2.46.19c-3.91,7.87-8.91,15.19-14.83,21.67,0,0-.31-.25-.31-.25h0Z"/>
  <path class="cls-1" d="M703.85,384.15c5.07-2.99,8.01-8.5,8.53-14.25,0,0,1.13-.26,1.13-.26,2.23,2.79,5.78,6.65,9.65,5.68,1.41-.73,2.14-2.33,2.79-3.81,1.31-3.31,1.99-6.95,2.41-10.48,0,0,2.47-.03,2.47-.03.41,2.09,1.05,4.27,1.94,6.19,3.74,8.3,8.62,4.08,11.03-2.3,0,0,2.41-.16,2.41-.16,1.04,2.47,2.28,4.89,4.09,6.79,1.82,1.98,4.36,3.1,7.1,3.05,0,0,.04.3.04.3-6.22,1.56-11.15-3.97-13.58-9.06,0,0,2.41-.16,2.41-.16-.35,1.23-.8,2.31-1.34,3.42-3.88,8.21-11.69,7.64-14.77-.77-.89-2.28-1.44-4.54-1.8-6.94,0,0,2.47-.03,2.47-.03-.91,4.67-2.77,16.64-9.21,15.92-4.06-.53-6.96-3.79-9.14-6.92,0,0,1.13-.26,1.13-.26-.84,5.91-4.23,11.57-9.6,14.34,0,0-.15-.26-.15-.26h0Z"/>
  <path class="cls-1" d="M659.38,293.16c5.23-6.79,8.1-15.18,8.5-23.7,0,0,1.35-.12,1.35-.12.84,2.79,2.07,5.59,3.8,7.87,3.92,5.44,10.23,3.82,12.49-2.21,1.05-2.62,1.54-5.62,1.59-8.44l2.41-.41c2.04,4.96,6.68,10.09,12.48,9.11,5.45-1.21,6.89-8.76,7.41-13.71,0,0,2.46-.46,2.46-.46,1.78,4.55,3.73,9.15,7.09,12.73,1.12,1.17,2.46,2.11,4.01,2.68,0,0-.07.29-.07.29-1.7-.27-3.29-1.1-4.65-2.16-4.07-3.22-6.58-7.94-8.75-12.55,0,0,2.46-.46,2.46-.46-.21,6.41-2.03,15.23-9.44,16.69-7.3,1.18-13.06-5.01-15.35-11.33,0,0,2.41-.4,2.41-.4-.34,4.79-1.32,9.81-4.79,13.37-2.4,2.44-6.46,3.3-9.5,1.57-4.25-2.51-6.16-7.37-7.41-11.85,0,0,1.35-.12,1.35-.12-.76,8.66-4.04,17.12-9.63,23.79,0,0-.24-.19-.24-.19h0Z"/>
  <path class="cls-1" d="M629.52,219.24c6.38-7.37,8.45-17.3,7.92-26.81,0,0,2.17-.44,2.17-.44,1.17,2.58,2.4,5.13,3.93,7.47,5.19,7.9,10.72,11.81,20.1,7.51,0,0,.16.25.16.25-8.58,7.55-18,2.87-22.67-6.32-1.43-2.62-2.54-5.34-3.6-8.07,0,0,2.17-.44,2.17-.44-.04,7.38-1.46,14.97-5.39,21.31-1.28,2.1-2.82,4.04-4.56,5.75l-.22-.2h0Z"/>
  <path class="cls-1" d="M679.38,77.4c10.06-15.4,20.71-30.63,34.39-43.1,3.95-3.23,8.49-7.3,14.08-7,4.67.58,8.92,3.45,11.49,7.28,2.81,4.04,4.14,8.76,5.19,13.37,1.1,4.36,2.44,8.72,3.74,13.05,3.31,11.76,8.7,22.7,12.53,34.3,0,0-.36.17-.36.17-3.06-5.33-5.91-10.74-8.69-16.19-5.81-10.86-9.64-22.78-12.15-34.8-1.45-6.58-5.67-13.75-12.99-14.14-4.17.43-7.81,3.38-11.15,5.97-13.84,11.86-25.04,26.6-35.74,41.33,0,0-.33-.22-.33-.22h0Z"/>
  <path class="cls-1" d="M658.38,73.44c6.55-5.61,13.21-11.23,21.05-15.05,5.7-3.12,12.63.39,16.68,4.68,2.67,3.04,5.67,6.54,8.54,9.38.85.87,2.23,1.81,3.2,2.56,2.26,1.54,4.54,3.42,7.3,3.88,0,0,.02.3.02.3-1.51.3-3.02-.15-4.41-.6-2.43-.86-4.71-2.08-6.88-3.44-2.74-1.97-5.03-4.3-7.29-6.76-2.52-3.13-5.07-6.66-8.92-8.16-1.18-.51-2.55-.82-3.74-.93-3.96.28-7.75,2.78-11.23,4.74-4.88,2.91-9.55,6.21-14.13,9.62l-.19-.23h0Z"/>
  <path class="cls-1" d="M556.37,49.45c9.14-9.56,24.27-23.66,38.42-22.66,7.84,1.15,14.34,6.52,19.59,12.07,5.13,5.63,9.53,11.87,12.95,18.65,0,0-.25.16-.25.16-4.76-5.83-9.58-11.54-14.84-16.73-5.13-4.84-10.7-10.42-17.77-11.77-7.14-.88-14.32,2.86-20.33,6.56-6.3,3.95-12.16,8.71-17.54,13.92l-.22-.21h0Z"/>
  <path class="cls-1" d="M607.95,53.15c7.92-8.15,16.25-15.87,25.58-22.44,3.95-2.58,8.15-5.67,13.13-5.95,4.12.25,8.43,1.04,11.75,3.68,2.41,1.91,3.56,4.89,4.03,7.79,0,0-.28.09-.28.09-1.2-2.43-2.6-4.86-4.95-6.22-3.11-1.79-6.93-2.13-10.47-2.24-4.25.46-8.16,2.73-11.89,4.89-9.51,5.94-18.23,13.24-26.7,20.61,0,0-.21-.21-.21-.21h0Z"/>
  <path class="cls-1" d="M559.53,49.46c2.17-.55,5.34-1.2,7.57-1.65,2.57-.67,5.1-1.02,7.75-.26,0,0,.02.2.02.2-2.38,1.38-4.92,1.67-7.57,1.65-2.28.11-5.49.26-7.75.26,0,0-.02-.2-.02-.2h0Z"/>
  <path class="cls-1" d="M623.87,42.63c1.71-.58,4.09-1.58,5.8-1.8.68.03,1.37.14,2.12.59l.03.2c-1.09,1.22-2.37,1.44-3.85,1.3-1.35.04-2.71,0-4.06-.09,0,0-.03-.2-.03-.2h0Z"/>
  <path class="cls-1" d="M629.63,37.07c2.63-.35,5.31-.9,7.95-.9.88.13,1.77.35,2.65.9v.2c-1.71,1.06-3.45,1.05-5.3.7-1.77-.17-3.54-.41-5.3-.7,0,0,0-.2,0-.2h0Z"/>
  <path class="cls-1" d="M703.31,55.78c1.81-.29,4.26-.87,6.02-.81.67.15,1.33.37,1.99.93v.2c-1.28,1.02-2.58,1.03-4.02.64-1.34-.19-2.67-.45-3.99-.76,0,0,0-.2,0-.2h0Z"/>
  <path class="cls-1" d="M707.16,48.75c1.81-.29,4.26-.87,6.02-.81.67.15,1.33.37,1.99.93v.2c-1.28,1.02-2.58,1.03-4.02.64-1.34-.19-2.67-.45-3.99-.76,0,0,0-.2,0-.2h0Z"/>
  <path class="cls-1" d="M37.7,428.31c-.02-2.84-.13-5.68-.59-8.47-.62-2.82-1.23-5.36-1.32-8.33,0,0,.18-.08.18-.08,2.14,2.22,2.8,5.29,2.73,8.26.08,2.91-.2,5.81-.81,8.64,0,0-.2-.02-.2-.02h0Z"/>
  <path class="cls-1" d="M40.3,409.31c1.55,1.63,3.68,4,5.3,5.51,2.01,1.63,3.54,3.21,5.5,4.98,0,0-.05.19-.05.19-2.88.24-5.13-1.95-6.63-4.1-1.61-2.06-2.99-4.23-4.27-6.46l.16-.12h0Z"/>
  <path class="cls-1" d="M64.7,418.71c2.33,4.76,4.83,9.58,5.97,14.78.24,1.78.3,3.65-.22,5.43h-.2c-1.16-3.4-1.97-6.59-2.7-10.06-.88-3.39-1.98-6.72-3.03-10.07,0,0,.18-.08.18-.08h0Z"/>
  <path class="cls-1" d="M68.14,415.51c1.92,3.2,3.91,6.37,6.17,9.33,2.41,2.91,4.71,5.62,6.7,8.9,0,0-.13.15-.13.15-3.52-1.72-6.01-4.81-7.88-8.14-1.97-3.23-3.65-6.63-5.03-10.14,0,0,.18-.09.18-.09h0Z"/>
  <path class="cls-1" d="M62.78,442.2c1.82,3.6,3.81,7.14,6.23,10.36,2.56,3.17,5.14,5.99,7.66,9.26,0,0-.12.16-.12.16-5.98-2.42-9.11-8.49-11.74-13.98-.82-1.88-1.58-3.78-2.21-5.72l.18-.08h0Z"/>
  <path class="cls-1" d="M61.57,461.89c-.08-2.86-.28-5.71-.7-8.53-.57-2.86-1.03-5.58-.57-8.55,0,0,.2-.04.2-.04,1.67,2.56,2.08,5.51,1.97,8.47.03,2.91-.15,5.82-.69,8.67,0,0-.2-.02-.2-.02h0Z"/>
  <path class="cls-1" d="M32.36,417.48c-2.49.87-5.86,1.25-7.8-.96-1.93-2.29-1.88-5.96.38-8.05,0,0-.07,1.08-.07,1.08-3.36-3.42-5.33-9.53-1.27-13.2,1.53-1.52,3.45-2.67,5.57-3.07,4.48-.81,8.64,2.14,10.95,5.76,0,0-2-.55-2-.55,5.94-2.87,11.14,2.24,8.34,8.18-.67,1.41-1.57,2.62-2.68,3.63,0,0-.23-.19-.23-.19,1.66-2.82,3.23-8.28-.85-9.51-.93-.2-2.24.16-3.18.63l-2-.55c-1.83-2.47-4.65-5.18-7.96-4.82-7.18,1.54-7.98,7.32-3.59,12.69,0,0-.07,1.08-.07,1.08-2.29,1.82-1.99,6.13.74,7.43,1.75.77,3.79.61,5.63.15,0,0,.1.28.1.28h0Z"/>
  <path class="cls-1" d="M62.74,420.04c-2.16.69-4.83,1.55-6.89.11-2.29-2.22-.6-5.54,2.18-6.29,0,0-.44,1.25-.44,1.25-1.34-1.84-2.41-4.09-2-6.47.47-2.62,3.27-4.68,5.93-4.06,1.73.39,3,1.27,4.23,2.51,0,0-2.54.56-2.54.56.74-3.38,3.88-5.78,7.12-3.91,3.94,2.56,3.48,7.95,2.48,11.82,0,0-.3-.03-.3-.03-.47-2.74-.89-5.97-2.41-8.18-.52-.8-1.61-1.3-2.33-1.14-.77.17-1.46,1.41-1.74,2.17,0,0-2.54.56-2.54.56-1.21-1.63-3.52-2.91-5.14-1.15-1.69,1.64-.6,4.56.53,6.35,0,0-.44,1.25-.44,1.25-.86.22-1.81.75-2.19,1.5-.38.71-.31,1.91.27,2.49,1.54,1.28,4.24.74,6.14.35,0,0,.09.29.09.29h0Z"/>
  <path class="cls-1" d="M56.27,449.4c-3.03-.97-6.73-1.91-8.34-5-1.07-3.58,2.8-5.1,5.74-4.57,0,0-1.01,1.14-1.01,1.14-1.5-4.32-3.92-14.11,3.62-13.57,3.74.61,5.5,4.31,6.26,7.6,0,0-2.45-.7-2.45-.7,3.86-3.55,8.52-1.09,7.4,4.03-.27,1.09-.72,2.08-1.35,2.95l-.27-.13c.36-1.73.57-3.96-.47-5.35-.93-1.34-2.34-.34-3.27.59,0,0-2.45-.71-2.45-.71-.81-2.26-2.56-6.66-5.45-5.24-.37.29-.68,1.02-.8,1.85-.35,2.67.23,5.52.9,8.15,0,0-1.01,1.14-1.01,1.14-1.17-.23-2.62-.21-3.47.38-.89.6-1.13,1.9-.41,2.84,1.62,2.09,4.45,3.31,6.89,4.32,0,0-.09.29-.09.29h0Z"/>
  <path class="cls-1" d="M113.98,329.37c.96,3.58,1.68,7.45,1.08,11.15-.33,1.23-.83,2.44-1.72,3.45l-.19-.06c-.33-2.57.04-4.77.47-7.23.24-2.41.27-4.84.17-7.28,0,0,.2-.03.2-.03h0Z"/>
  <path class="cls-1" d="M116.26,330.09c1.28,1.23,3.32,2.96,4.27,4.35.28.62.51,1.29.45,2.16l-.16.12c-1.58-.42-2.37-1.46-2.93-2.84-.66-1.19-1.25-2.42-1.8-3.67,0,0,.16-.12.16-.12h0Z"/>
  <path class="cls-1" d="M145.39,343.94c-.4-4.57-.92-9.13-1.65-13.65-1-4.56-1.83-8.85-1.53-13.62,0,0,.29-.08.29-.08,2.86,3.95,3.64,8.72,3.63,13.45.24,4.64.05,9.29-.43,13.91,0,0-.3,0-.3,0h0Z"/>
  <path class="cls-1" d="M148.88,310.34c1.32,5.43,3.9,10.44,7.41,14.73,3.76,4.19,7.81,7.65,11.42,12.11,0,0-.17.25-.17.25-8.48-2.78-14.06-10.64-17.13-18.66-.95-2.72-1.6-5.54-1.82-8.38,0,0,.3-.05.3-.05h0Z"/>
  <path class="cls-1" d="M175.78,337.29c-.1-4.2-.68-8.37-1.75-12.4-1.35-4.06-2.72-7.76-3.09-12.16,0,0,.27-.13.27-.13,3.34,3.09,4.81,7.41,5.17,11.82.61,4.28.49,8.67-.3,12.9,0,0-.3-.02-.3-.02h0Z"/>
  <path class="cls-1" d="M175.3,310.3c2.05,3.62,4.64,6.95,7.85,9.55,3.45,2.46,6.8,4.21,10.18,6.96,0,0-.09.29-.09.29-7.01.47-12.38-5.19-15.66-10.75-1.05-1.91-1.93-3.88-2.56-5.93,0,0,.27-.12.27-.12h0Z"/>
  <path class="cls-1" d="M111.53,332c-2.59-.71-5.9-1.69-6.71-4.68-.41-2.49,1.16-4.77,3.26-5.99,0,0-.54,1.15-.54,1.15-.99-4.07-2-9.33,1.55-12.55,2.14-1.75,5.86-1.93,7.58.51,1.52,2.27,1.6,4.44,1.48,6.97,0,0-2.28-2.25-2.28-2.25,11.07-1.9,17.09,9.3,5.13,14.02,0,0-.21-.34-.21-.34,1.21-1.29,2.34-2.67,3.08-4.07,2.73-4.76-4.03-5.99-7.4-5.66,0,0-2.28-2.25-2.28-2.25.24-1.78.52-4.94-1.42-5.05-4.55.02-3.79,6.93-3.29,10.18,0,0-.54,1.15-.54,1.15-.84.37-1.74,1.08-2.24,1.9-2.15,3.35,2.28,5.56,4.93,6.57,0,0-.11.39-.11.39h0Z"/>
  <path class="cls-1" d="M140.79,319.88c-4.92-.88-13.23-2.22-15.76-7.09-1.24-3.25.82-7.21,4.29-7.85.66-.15,1.25-.24,2-.23,0,0-1.1,1.3-1.1,1.3-1.01-4.95-1.85-10.64,1.23-15.18,2.46-3.36,7.72-3.89,10.75-1.05,4,3.72,5.51,8.89,6.64,14.02,0,0-3.43-1.18-3.43-1.18,4.02-3.6,10.02-8.37,15.79-6.24,5.34,2.74,3.78,8.35.16,11.74-2.21,2.22-4.73,3.94-7.41,5.34,0,0-.22-.33-.22-.33,2.48-2.43,10.02-9.26,7.19-12.68-3.08-3.08-10.09,2.98-12.7,5.14,0,0-3.43-1.18-3.43-1.18-.71-4.2-1.72-9.08-4.74-12.19-1.81-1.88-4.83-1.55-6.42.34-2.59,3.55-2.03,8.73-1.37,12.96,0,0-1.1,1.3-1.1,1.3-2.46-.21-4.8,1.42-4.84,4.04-.28,3.67,5.09,5.55,7.95,6.72,2.13.77,4.34,1.41,6.56,1.9l-.07.39h0Z"/>
  <path class="cls-1" d="M151.97,316.53c2.42.74,4.95,1.37,7.46,1.32,2.58-.22,4.63-.78,7.25-1.31,0,0,.11.16.11.16-1.55,2.47-4.74,3.28-7.45,2.74-2.73-.35-5.21-1.41-7.46-2.73l.08-.18h0Z"/>
  <path class="cls-1" d="M177.94,311.01c2-2.91,8.44-14.74,1.3-14.56-1.88.1-3.98.79-5.78,1.61l-1.81-.5c-7.39-8.94-15.24-12.36-25.18-4.69,0,0-.32-.23-.32-.23,1.21-2.56,3.29-4.67,5.85-6.15,9.47-5.35,16.96,2.01,22.07,9.38,0,0-1.81-.5-1.81-.5,9.9-3.87,15.47.57,9.83,10.43-1.1,1.96-2.4,3.77-3.84,5.47,0,0-.32-.24-.32-.24h0Z"/>
  <path class="cls-6" d="M309.76,116.1c-.2,10.04-.53,21.04-.93,31.11-.2,5.16.15,10.36-.63,15.48-.6,5.08-1.97,10.18-2.93,15.16,0,0-.54.26-.54.26-.8-1.18-1.07-2.64-1.42-3.99-1.27-6.47-1.46-13.13-.48-19.62.77-4.47,1.69-10.88,2.33-15.43,1.19-7.45,2.56-15.67,4.01-23.04,0,0,.6.06.6.06h0Z"/>
  <path class="cls-6" d="M297.16,181.23s10.88-2.65,10.88-2.65l2.72-.65c.88-.14,1.95-.6,2.89-.51,2.13.03,4.14,1.62,4.66,3.75l5.08,21.81,2.51,10.91c.1.45,1.38,5.95,1.41,6.25.41,2.68-1.06,5.51-3.48,6.72-5.02,2.77-13.31,7.27-18.38,10.11,0,0-2.78-1.85-2.78-1.85.27-4.79-.06-9.66-.59-14.52-1.11-9.8-3.1-19.53-5.16-29.2-1.02-4.88-2.1-9.75-3.07-14.66,0,0,.38-.11.38-.11,1.85,4.65,3.51,9.38,5.06,14.14,4.45,14.43,8.61,29.41,7.17,44.7,0,0-2.78-1.85-2.78-1.85,4.64-2.36,12.99-6.44,17.54-8.78,0,0,1.24-.63,1.24-.63,1.6-.73,2.42-2.57,1.98-4.27,0,0-1.08-5.49-1.08-5.49l-2.16-10.98-4.25-21.98c-.31-1.54-1.74-2.82-3.37-2.91-.7-.09-1.89.26-2.62.38,0,0-2.74.54-2.74.54l-10.99,2.14s-.09-.39-.09-.39h0Z"/>
  <path class="cls-6" d="M348.3,170.99c4.1,1.4,9.37,2.18,13.03-.58,3.28-3.27,2.05-8.71,1.03-12.72,0,0,.91.04.91.04-1.17,2.57-2.02,5.71-4.72,7.13,0,0-1.17.46-1.17.46,2.47-5.75,1.45-12.25-.27-18.1,0,0,1.5-.22,1.5-.22.03,5,.22,10.11-2.25,14.74,0,0-1.47,2.59-1.47,2.59-.25-4.59-1.31-9.09-2.99-13.45,0,0,2-.37,2-.37-.1,5.64-.11,11.59-3.27,16.59-3.35-1.15-2.93-5.27-2.93-8.07,0,0,1.09.21,1.09.21-1.2,3.04-2.55,6.31-1.96,9.63,0,0-.19.05-.19.05-1.29-4.36.78-8.94,2.11-13.05.09,2.08.01,4.88.44,6.88.2.94.56,2.23,1.42,2.6,0,0-.98.32-.98.32,2.33-4.5,2.13-10.12,2.2-15.15,0,0-.08-5.83-.08-5.83l2.08,5.46c1.31,3.54,2.39,7.2,2.66,11.01,0,0-1.76-.42-1.76-.42,3.12-5.69,2.19-13.34,2.31-19.67,2,7.48,4.77,15.82,1.85,23.43,0,0-.73-.75-.73-.75,1.06-.43,1.84-1.73,2.45-2.74.89-1.54,1.61-3.31,2.32-4.96,1.18,4.58,2.71,11.15-1.22,14.79-3.98,2.81-9.22,1.87-13.48.31,0,0,.08-.19.08-.19h0Z"/>
  <path class="cls-6" d="M380.32,258.19c-1.26,3.52-5.43,1.99-4.33-1.52,1.33-3.43,5.54-2.02,4.33,1.52h0ZM380.32,258.19c.89-2.88-2.34-4.09-3.38-1.19-1,2.92,2.28,3.99,3.38,1.19h0Z"/>
  <path class="cls-6" d="M369.83,258.19c-1.26,3.52-5.43,1.99-4.33-1.52,1.33-3.43,5.54-2.02,4.33,1.52h0ZM369.83,258.19c.89-2.88-2.34-4.09-3.38-1.19-1,2.92,2.28,3.99,3.38,1.19h0Z"/>
  <path class="cls-6" d="M384.13,277.59c-1.26,3.52-5.43,1.99-4.33-1.52,1.33-3.43,5.54-2.02,4.33,1.52h0ZM384.13,277.59c.89-2.88-2.34-4.09-3.38-1.19-1,2.92,2.28,3.99,3.38,1.19h0Z"/>
  <path class="cls-6" d="M371.53,277.59c-1.26,3.52-5.43,1.99-4.33-1.52,1.33-3.43,5.54-2.02,4.33,1.52h0ZM371.53,277.59c.89-2.88-2.34-4.09-3.38-1.19-1,2.92,2.28,3.99,3.38,1.19h0Z"/>
  <path class="cls-6" d="M362.82,275.17c3.62-5.46,10.87-14.97,18.33-11,2.37,1.43,3.47,4.16,3.7,6.81,0,0-.39-.39-.39-.39,1.93.28,4.15.48,5.55,2,.73.89.24,2.26-.68,2.78-.88.52-1.9.57-2.85.49.95-.03,1.95-.19,2.69-.73.74-.5,1-1.63.43-2.21-1.27-1.23-3.47-1.35-5.19-1.5,0,0-.34-.02-.34-.02l-.04-.37c-.53-5.49-5.16-8.48-10.18-5.91-4.42,2.3-7.88,6.22-11.02,10.06h0Z"/>
  <path class="cls-6" d="M361.37,256.87c1.87-4.51,4.69-9,9.2-11.32,5.46-2.6,11.08.11,10.55,6.58,0,0-.37-.37-.37-.37,1.34,0,3.07.06,3.75,1.47.4,1.34-.28,3-1.67,3.3,1.23-.41,1.73-2.04,1.29-3.13-.72-1.15-2.47-1.03-3.67-.92.27-6-4.31-8.34-9.46-6.06-4.32,2.09-7.26,6.34-9.6,10.45h0Z"/>
  <path class="cls-6" d="M365.03,252.62c1.88-2.45,4.25-4.63,7.24-5.64,3.37-1.2,7.66.42,6.55,4.65,0,0-.08.33-.08.33-3.15-.06-6.3-.19-9.44-.45,3.02-.26,6.05-.38,9.08-.45,0,0-.43.33-.43.33.5-2.36-1.01-3.8-3.33-3.82-3.75,0-6.92,2.63-9.6,5.05h0Z"/>
  <path class="cls-6" d="M368.35,270.58c1.94-2.31,4.35-4.32,7.29-5.26,3.68-1.16,7.17.81,7.06,4.9-3.87.22-7.74.39-11.62.35,3.68-.57,7.38-.95,11.09-1.28,0,0-.44.48-.44.48-.04-2.04-1.68-3.84-3.79-3.8-3.67-.11-6.87,2.35-9.58,4.61h0Z"/>
  <path class="cls-6" d="M370.99,257.51c1.54-1.05,3.26-1.44,5.11-1.15-1.54,1.05-3.27,1.44-5.11,1.15h0Z"/>
  <path class="cls-6" d="M372.91,276.91c2.13-1.16,4.43-1.67,6.85-1.49-2.13,1.17-4.43,1.66-6.85,1.49h0Z"/>
  <path class="cls-6" d="M361.37,257.9c1.02-1,2.27-1.35,3.66-1.02-1.02,1-2.27,1.34-3.66,1.02h0Z"/>
  <path class="cls-6" d="M363.76,276.17c.87-1.03,2-1.43,3.32-1.17-.86,1.03-2,1.43-3.32,1.17h0Z"/>
  <path class="cls-6" d="M179.55,480.13c2.35,1.76,5.98,3.44,8.44,3.46,1.6-.42,3.4-1.38,2.81-3.26-.42-.55-1.91-2.62-2.95-3.53-1.12-1.14-2.33-2.21-3.62-3.21h.61c-1.14.58-5.57,3.48-2.05.37.55-.5,1.11-.99,1.67-1.47,3.18,1.61,5.92,4.18,7.51,7.41.8,2.67-1.56,4.2-3.83,4.59-3.35-.25-6.18-2.18-8.68-4.22,0,0,.09-.12.09-.12h0Z"/>
  <path class="cls-6" d="M188.3,470.86l5.4-5.5.25-.26c1.97,1.83,3.87,3.74,5.36,6.08.97,1.2.85,2.92.06,4.2-.7,1.29-1.29,2.84-2.94,3.22-1.19-.13-2.36-.62-3.42-1.19-1-.57-1.88-1.34-2.51-2.27l.11-.1c1.76,1.32,3.78,1.91,5.85,2.16h-.2c.98-.76,1.57-2.22,2.19-3.31.36-.73.26-1.28-.21-2.08-1.17-2.14-2.82-4.07-4.55-5.89h.53s-5.83,5.06-5.83,5.06c0,0-.1-.11-.1-.11h0Z"/>
  <path class="cls-6" d="M197.66,464.8c2.76.93,6.8,2.99,8.44,4.47,2.46.3,7.01-.51,6.04-3.79-1.1-2.39-3.17-5.87-4.52-8.21,0,0,1.1.23,1.1.23-3.21,2.1-6.52,4.07-9.93,5.82,0,0-.08-.13-.08-.13,3.13-2.66,6.4-5.11,9.8-7.39,0,0,.43.68.43.68,1.71,2.77,3,5.59,4.3,8.62,1.25,4.19-4.15,5.51-7.21,4.91-2.58-1.95-5.33-3.85-8.42-5.06,0,0,.05-.14.05-.14h0Z"/>
  <path class="cls-6" d="M219.6,462.86l-2.64-5.19-.08-.16c2.07-2.39,4.82-4.1,7.72-5.32,3.07,2.27,5.64,5.59,5.86,9.58.04,2.54-2.69,3.09-4.67,3.35-1.84.23-3.72.11-5.44-.44,0,0,.02-.15.02-.15,2.68.1,5.2-.39,7.64-1.37.55-.23.94-.81.91-1.36-.13-1.58-.58-3.27-1.4-4.72-.82-1.48-1.99-2.78-3.31-3.9,0,0,.52.08.52.08-2.7,1.01-5.24,2.45-7.32,4.47,0,0,.05-.3.05-.3l2.29,5.36-.14.06h0Z"/>
  <path class="cls-6" d="M191.42,496.2c2.65.06,5.43.4,7.68,1.96-.34,1.68-.48,3.4-.41,5.12.04,1.19.2,2.52.38,3.71.19,1.71-1.37,2.84-2.91,3-2.86.57-5.74-.98-7.61-2.96.07-1.48.34-2.96.86-4.33.47-1.29,1.12-2.49,1.93-3.56l.13.07c-.96,2.43-1.52,4.97-1.48,7.56,0,0-.23-.55-.23-.55,2.04,1.73,4.63,3.05,7.27,2.22.27-.1.51-.28.68-.53.17-.24.25-.54.24-.84-.31-2.93-.31-5.96.46-8.82,0,0,.13.35.13.35-2.01-1.53-4.64-2.01-7.13-2.24,0,0,0-.15,0-.15h0Z"/>
  <path class="cls-6" d="M203.05,498.85c2.38-.79,4.69-1.77,6.86-2.99,1.96,3.12,3.48,6.62,3.91,10.38-2.23,3.03-5.83,5.2-9.67,5.16-.93-1.3-1.53-2.81-1.79-4.31-.27-1.39-.35-2.78-.29-4.16h.15c.62,2.55,1.28,5.24,2.89,7.31,0,0-.64-.29-.64-.29.79-.11,1.57-.24,2.33-.47,2.31-.67,4.35-1.96,5.96-3.79,0,0-.13.44-.13.44-.24-3.37-1.48-6.65-3.09-9.69,0,0,.42.12.42.12-2.21,1.03-4.51,1.82-6.85,2.43l-.04-.14h0Z"/>
  <path class="cls-6" d="M215.48,495.47c1.99,3.06,3.78,6.39,4.45,10.1l-.46-.37c1.36-.01,6.94-1.61,6.15-3.43-1.7-1.9-3.49-4.16-4.68-6.49-.26-.56-.54-.88-1.14-.93-1.39.11-2.95.26-4.38.29,0,0-.03-.15-.03-.15.94-.31,1.89-.59,2.84-.84,1.03-.32,2.41-.7,3.3.24.43.42.64.87.95,1.3,0,0,.83,1.18.83,1.18.56.78,2.02,2.76,2.59,3.49,0,0,.45.57.45.57.67.64.91,1.98.35,2.79-1.72,1.97-4.68,2.66-7.18,2.84,0,0-.41.02-.41.02-.42-3.7-1.91-7.24-3.77-10.54,0,0,.13-.08.13-.08h0Z"/>
  <path class="cls-6" d="M225.39,492.66c1.65,2.23,3.19,4.62,3.81,7.39,0,0-.32-.28-.32-.28,1.51-.04,3.09-.16,4.53-.6,2.2-1.01,3.79-3.35,4.96-5.36.18-.39-.03-.86-.43-1-1.25-.51-2.47-1.12-3.58-1.9-1.8-1.21-3.37-2.77-4.59-4.54l.71.05c-4.33,3.52-4.4,3.38-.67-.71,0,0,.32-.36.32-.36l.39.41c2.29,2.42,5.01,4.3,8,5.7.35.16.67.42.89.74,1.21,1.79-.85,3.53-1.82,4.84-1.11,1.21-2.29,2.47-3.92,3.02-1.68.42-3.38.47-5.1.38-.37-2.76-1.77-5.31-3.31-7.68,0,0,.12-.09.12-.09h0Z"/>
</svg>