<?xml version="1.0" encoding="UTF-8"?>
<svg id="Layer_1" data-name="Layer 1" xmlns="http://www.w3.org/2000/svg" xmlns:xlink="http://www.w3.org/1999/xlink" viewBox="0 0 830.797 706.793">
  <defs>
    <style>
      .cls-1 {
        fill: none;
        stroke: #231f20;
        stroke-miterlimit: 10;
      }
    </style>
  </defs>
  <image width="1280" height="331" transform="translate(0 491.954) scale(.649)" xlink:href="../estonia.jpeg"/>
  <path class="cls-1" d="M276.899,148.48c-1.064,11.191-7.584,16.311-12.468,18.213-6.282,2.446-8.043-.213-8.043-8.34,0-3.529,1.549-6.738,5.064-12.638M230.048,145.714c-4.511,6.979-6.128,14.979-4.851,24,4.157-2.078,5.617-3.702,8.809-5.319,7.164-3.63,10.282-10.543,6.511-15.617M215.963,144.693c-5.193,1.125-16.984,14.944-20.298,19.872-8.235,12.247-12.493,22.877-8.34,26.213,2.596,2.085,11.145-9.705,14.17-22.511,2.463-10.427,1.602-20.604-3.849-20.407-8.88.321-11.629,16.312-12.79,8.985-.995-6.281,1.787-11.132,1.787-11.132M76.09,185.544,92.303,158.778c6.187,2.873,10.405,2.243,22.181-1.064M324.005,140.352s-5.793.375-11.666,1.186c-5.84.807-11.759,2.045-12.143,3.776-.613,2.762,1.826,4.449,4.963,5.408,3.773,1.154,8.555,1.255,10.251.906,2.377-.488-3.612,4.71-13.319,10.34-4.255,2.468-4.399,3.683-5.745,4.638,4.423.573,9.364-.619,13.787-1.149,4.768-.572,10.125-.529,14.894-2.383M352.814,148.225c-2.638.213-9.445,6.553-9.404,11.234.065,7.507,14.553,1.83,14.553,1.83M385.92,147.459c-3.83-.574-15.638,4.919-14.043,8.659s3.966,4.234,8.944,2.064,11.992-5.383,11.545-7.936-2.617-2.212-6.447-2.787ZM393.707,148.522c5.611.494,10.933-1.639,16.021-5.17,0,0-6.957,5.75-6.83,9s5.234,5.106,8.745,4.787,8.663-3.878,8.936-7.915c.151-2.234-.258-3.821-2.491-4.783s-6.956.315-7.786,1.4M548.26,163.076c2.043,1.532,2.9,4.651-.868,6.007-3.151,1.135-7.728.163-17.005-1.114s-16.596-.447-18.894,1.319c-1.81,1.391-.429,2.815,2.809,1.957,2.957-.783,29.901-22.433,32.435-31.966,2.248-8.457-2.223-13.821-6.138-13.821s-9.467.336-13.977,4.336c-4.511,4-7.64,10.047-3.384,14.132s12.803-1.947,16.34-7.319c3.749-5.693-5.25-10.375-6.186-10.468M580.09,174.139c.766-16.199,3.461-32.482,7.745-47.66-.782,4.654-5.192,9.306-12.511,13.957M646.729,137.373c-3.332,13.763-3.88,27.05-1.447,39.83M695.154,172.267c-2.133,1.476-5.2,5.107-10.638,14.213-1.277-4.851,10.128-30.213,11.234-35.149,1.369-6.107,2.809-13.447-.596-15.234-3.996-2.098-15.847,7.956-15.404,12.255.544,5.281,7.404,5.191,10.723,3.404s5.447-5.532,5.106-9.277c-.34-3.745.166-7.171-5.702-8.255-7.155-1.322-14.05,8.263-12.34,12.681M721.877,181.373c-.343-9.283,11.674-28.32,15.83-34.298,4.156-5.978,1.757-12.167-2.328-13.784s-8.651-.089-11.204,4.167-2.305,8,0,11.149c2.305,3.149,6.944,2.809,9.702,1.362s4.851-6.128,4.681-9.958c-.17-3.83-4.936-8.596-7.439-8.426s-7.966,3.319-8.306,7.064,1.957,4.426,5.277,3.83M773.197,133.714c-6.723,16.681-13.892,36.378-8.34,38.383,3.786,1.367,11.968-3.202,17.787-9.021,1.106-1.106,5.872-5.362,7.66-9.021,3.397-6.956,5.172-16.221,3.404-18.723-1.616-2.288-10.945,36.799-13.192,54.298M357.963,139.076c-9.532-.681-21.149,5.66-22.128,2.638-1.347-4.158,15.234.085,33.277.596M108.005,17.203c12.511,2.979,15.878,8.034,18.857,10.673,2.297,2.035,6.47,4.645,8.28,5.727,1.779,1.064-39.674,20.407-40.584,24.791-.333,1.605,6.75,1.139,14.188-.572,10.974-2.524,23.735-4.703,37.727-4.875M123.491,13.236c-3.486-.934-5.571-1.777-7.315-2.458s-6.065-1.302-5.895,1.208,4.618,2.659,9.299,2.664c3.574.004,9.25-.942,14.638-1.191,6.126-.284,23.149-2.128,33.787-2.383M175.92,13.033c10.799,1.418,20.699.086,29.617-4.255M189.452,17.884c-5.617,10.979-11.83,28.255-9.702,30.723,1.179,1.367,5.872-.426,5.872-.426M230.814,11.177c-3.26,17.68-15.149,39.813-13.617,42.111,2.22,1.157,14.638-2.213,27.064-4.851M250.303,17.799s2.894-4.936.936-5.957-7.915,3.149-20.17,2.638M224.941,33.969c11.064,1.957,19.196-.504,25.153-3.402M287.75,16.182s-4.426-.851-7.489,1.617-5.532,5.362-8.34,9.362c-2.63,3.745-.941,6.745-.255,11.489,1.021,7.064,6.043,11.549,9.447,12.741s11.319-.826,17.872-3.294,14.043-11.83,14.043-16.255-2.894-6.809-4.596-9.447-4.085-5.957-8.426-7.234-7.149,1.362-8.511,3.234-1.957,8.596-1.957,8.596M305.367.182c-5.234,13.395-6.043,25.66-9.319,33.102-4.468,8.005-11.617,23.324-15.767,36.737-2.191,6.843-3.276,8.152-2.872,7.906,1.298-.787,3.213-2.83,6.255-2.298M354.26,30.693c-3.702-1.021-17.617,2.591-17.617,2.591M391.409,14.861c-4.039,9.992-13.979,32.81-15.255,33.002s14.489-34.149,22.468-32.106c6.319,1.917-.295,26.803,2.489,27.638,2.553.766,18.064-36.447,22.021-35.936,2.598.335.702,6.255.702,6.255M439.984,12.756c.383,4.085-9.064,26.426-5.426,30.128M489.963,45.565c-2.745-6.319,5.362-16.021,6.511-24.447,1.149-8.426-1.761-19.689-8.298-20.234-4.596-.383-9.795,6.619-12.766,11.298-2.553,4.021-11.797,32.963-10.532,33.638,1.246.666,9.766-31.34,8.106-31.979s-4.149,4.66-4.149,4.66M498.452,22.012c-10.085-2.617-22.606-.299-24.191,0M350.686,51.416c6.511-9.574,5.745-14.638,4.766-20.905-.573-3.668-2.596-12.542-6.426-14.584-2.788-1.487-5.004-2.293-8.128,1.234-1.552,1.752-3.588,6.206-6.255,14.736-2.511,8.029-6.674,19.091-6.213,19.051.43-.037,3.342-6.266,5.83-13.532,3.173-9.27,5.468-19.76,5.121-19.995l-3.759,2.356M110.431,184.397s10.152-46.945,4.053-49.462c-2.681-1.106-10.3,5.883-15.074,9.801-5.98,4.907-22.363,42.016-22.809,39.532-.929-5.177,21.616-33.821,19.234-33.191-2.696.712-7.745,4.34-8.511,8.222M153.197,146.608c-4.34,2.596-12.936,15.319-13.702,18.638s.426,6.596.809,7.532,2.101,1.963,5.106,1.106c3.488-.994,6.766-2.946,9.66-5.319s4.426-6.044,5.319-8.426,1.426-6.809.511-8.723"/>
</svg>