<?xml version="1.0" encoding="UTF-8"?>
<svg id="Layer_1" data-name="Layer 1" xmlns="http://www.w3.org/2000/svg" viewBox="0 0 253.2 284.07">
  <defs>
    <style>
      .cls-1 {
        fill: #231f20;
      }

      .cls-2 {
        fill: #fff;
      }

      .cls-3 {
        fill: #fff200;
      }
    </style>
  </defs>
  <path d="M252.22,206.77c.04.14.2.44.63,2.56s.42,8.3.17,9.24c-.77,1.83-2.48,2.51-2.74,2.65-1.28.68-3.17.72-4.59.47-7.88-1.42-22.12-17.37-28.96-22.38-.98-.74-1.67-.63-2.29.44l-4.53,15.97c4.32,2.69,9,5.39,11.56,10.07,1.51,2.76,1.58,6.39,2.84,8.67,1.65,3.01,5.35,5.38,7.36,9.91,1.57,3.53,4.77,14.92,3.98,18.37s-9.27,6.98-12.36,7.78c-15.58,4.04-23.7.49-38.19-2.59-22.11-4.69-51.78-9.02-73.55-2.67-14.94,4.35-29.43,11.61-44.99,15.45-4.64,1.15-10.3,1.41-14.61,2.57-.4.11-5.4.51-6.16.53s-12.89.54-14.64.09c-.5-.13-3.19-.84-3.85-1.06-1.93-.65-5.01-.69-7.51-1.62-1.32-.49-10.19-4.65-10.64-5.19-.56-.66-.65-1.31-.74-2.13-.95-8,9.82-26.55,16.34-31.18,1.11-.79,4.84-2.02,5.17-2.99-.34-4.86,1.25-9.36,1.99-14.08-.44-.57-9.67,8.18-10.54,8.89-3.34,2.71-11.15,8.91-15.23,9.25-2.14.18-5.25-2.07-5.76-4.1-.29-1.14-.52-6.77-.26-7.88.08-.35.96-3.24,1.07-3.64,1.45-5.36,2.58-9.67,4.74-14.85,13.96-33.41,30.73-65.77,44.82-99.14,1.37-10.7,4.59-22.19,5.56-32.84,1.34-14.72-8.28-13.64-19.6-12.18-1.37-1.38,4.24-10.94,5.51-12.49,2.05-2.51,4.26-4.2,7.42-5.06,1.03-.28,1.77.87,2.55-.83.71-1.54-.89-4.38-1.09-6.35-.59-5.86,1.72-14.35,4.4-19.59.99-1.93,5.95-9.8,7.33-10.9.38-.3.86-.94,1.22-.22-1.56,5.38-2.79,11.14-2.4,16.79.05.77.58,5.06,1.19,5.04,1.85-3.37,2.93-7.1,4.95-10.39,3.45-5.6,10.18-13,15.19-17.44.41-.37.95-1.4,1.44-.48.43.79-3.6,8.22-3.47,9.97-.25,5.01-2.17,11.29-1.58,16.2.39,3.2,3.4,4.91,6.47,4.55,44.83-11.05,89.68-21.79,134.14-33.78,2.97-.8,7.98-1.41,10.66-2.31.6-.2.54-1.08,1.45-1.45s3.32-.78,3.93.07c-.31,1.43.19,3.29.08,4.46-2.25,24.44-12.64,51.53-28.89,69.97-1.86,2.12-6.81,5.97-7.95,7.89s.53,3.16,1.7,4.59c6.53,8.02,10.98,11.39,15.2,21.74s3.6,19.77,6.73,28.78c6.07,17.47,17.31,36.25,24.44,53.79,2.09,5.15,3.47,9.71,4.88,15.06ZM233.34,3.88c-3.02.04-5.72,1.47-8.53,2.25-20.29,5.57-41.29,10.64-61.57,16.14-18.57,5.04-37.71,9.89-56.49,14.51-6.53,1.61-17.47,5.23-23.71,4.48-5.44-.65-6.84-5.19-6.09-9.99-3.15-.22-5.56-2.2-7.62-4.36-.95,3.18-2.87,6.07-4.07,9.13-.76,1.95-.97,4.85-2.05,6.58-.31.49.02.84-1.07.61-1.77-5.78-3.86-11.58-3.37-17.76-.75-1.02-4.77,11.26-4.36,12.24,0,1.12,1.63,1.08,2.3,1.82,4.4,4.89,6.18,16.76,5.39,23.11-.6,4.88-4.99,8.93-2.37,13.94l-2.44,14.35c4.08.93,4.42,5.02,3.85,8.67-.63,4.01-5.4,1.91-5.72,3.4l2.32,2.98c.27,1.79-2.43,3.69-.84,6.08.44.65,1.35.77,1.76,1.59,1.26,2.5,1.44,10.81.85,13.6-.4,1.88-4.25,6.41-5.99,6.96-3.34,1.04-4.54-.22-6.99-1.7-.38-.23-.46-.87-.96-.01-2.49,4.25,1.95,5.06,1.09,8.29-.18.7-1.46,2.35-2.12,2.72-1.3.73-1.86-.08-2.71.12-2.72.65-7.75,16.64-9.82,19.47-.95,2.6,1.99,3.74,2.27,6.17.31,2.64-1.74,4.94-2.86,7.16l-5.3-.03-2.86,6.5c2.62-.26,4.84,2.07,5.43,4.41.39,1.53.02,6.35-.7,7.77-1.04,2.07-2.84,2.45-4.98,2.24-4.18-.43-3.38-3.63-4.31-3.85-1.34-.32-1.69,3.44-1.67,4.32.2.19,4.66.29,5.44.56.36.13,3.11,3.12,3.44,3.76,3.38,6.51,2.4,19.54-6.36,21.03-5.25.89-8.49-5.91-9.95-9.98-3.16,2.91.74,6.16,1.17,8.9.25,1.6.18,5.01.05,6.71-.6,7.71-5.02,11.39-6.74,1.66-.7-.09-.86,1.26-.91,1.72-.24,2.18-.61,8.34,2.96,7.79,1.33-.2,7.04-3.42,8.36-4.38,10.57-7.75,21.11-18.15,31.07-26.74,5.31-4.58,11-10.59,16.39-14.79,1.17-.91,2.86-1.82,3.96-.28,2.8,3.9-7.47,7.03-7.68,10.52-.1,1.59,1.15,4.02,1.43,5.82.25,1.65-.28,3.38.28,5,1.16,1.93,6.24-.55,5.47,6.9-.5,4.81-2.61,5.75-7.1,4.66-2.5,7.75-12.35,14.42-19.72,8.37-1.65-1.35-2.59-3.67-3.6-4.56-.61-.53-.82-.62-1.66-.5-1.68,6.68.88,5.03,3.84,7.92,1.94,1.89,3.34,6.35,2.77,9.02-.18.82-1.74,4.67-2.19,5.49-3.4,6.21-8.46,5.26-11.83-.37-1.08-1.81-.81-5.34-3.15-3.1-.47.45-3.13,3.98-3.25,4.45-.54,2.18,2.45,5.28,3.51,7.31,3.14,5.99,5.85,12.56,7.51,19.12l10.88.5c.92-3.14.52-7.05,3.4-9.31,2.68-2.11,7.24-.69,8.86,2.22.98,1.76.4,3.49,1,4.76.84,1.8,3.36.26,4.85.05,3.52-.48,7.05-.78,10.45-2.02,2.18-1.4,1.99-11.33,8.79-8.7,2.07.8,4.31,4,5.59,3.94,1.51-.07,7.18-2.32,9.02-3.02,3.74-1.42,9.57-4.7,13.19-5.52,1.54-.35,3.27.17,4.69-.11,1.06-.21,1.35-1.22,2.41-1.43,19.58-3.8,39.6-1.2,59.05,1.37,2.64.35,5.89.21,8.46.65,5.91,1.02,12.83,4.17,18.94,5.04,9.68,1.39,29.49.57,31.56-11.85.74-4.44-3.16-12.87-6.19-16.18-2.58-2.81-8.45-6.14-12.18-6.77-4.01-.68-9.17,1.15-12.1-2.75.82-1,1.27-1.53,2.59-1.71,5.03-.68,9.98.6,14.83,1.43,2.44-.68-1.36-5.32-2.32-6.22-1.66-1.57-7.72-4.8-9.94-5.41-2.43-.67-14.82-1.63-15.24-3.01-.14-.58.06-1.01.42-1.44,1.37-1.65,10.28.03,13.02-.89.97-.32,2.19-2.12,2.76-3,5.58-8.68,10.76-38.15,11.59-48.88,1.72-22.14,1.06-48.84-14.55-66.31-17.9-20.03-35.7-15.54-57.34-4.2l-12.83,8.31c-3.41-1.54-.97-3.71.85-5.42,3.77-3.55,10.5-6.5,15.15-8.84,11.53-5.8,24.87-11.45,37.94-6.97,3.31,1.13,3.77,2.91,8.37,1.96,2.94-.61,10.49-9.67,12.55-12.4,12.18-16.16,19.86-35.37,23.66-55.04.21-1.08.98-8.48.58-8.77ZM227.1,154.13l-4.27.97c-.28.28-.39,6.78-.54,7.86-1.35,9.44-3.4,18.56-5.19,27.93-.68,3.58-.08,3.78,2.35,6.19,4.4,4.36,19.72,17.78,24.75,19.87,6.85,2.84,6.34-2.48,5.46-7.63-1.63.33-2.08,5-2.43,5.24-5.31.22-5.23-10.35-4.72-14.08.41-3.02,3.79-5.48,1.41-8.22l-1.21.26c-1.59,7.26-8.82,12.51-14.64,5.53-3.24-3.89-2.98-11.29-1.45-15.87.77-2.29,2.01-5.13,4.81-5.03-.04-2.32-2.77-1-4.31-1.68-.6-.27-2.25-2.13-2.39-2.88-.25-1.28-.17-6.72.2-7.94.56-1.81,2.92-3.13,4.61-3.6l-2.45-6.91ZM236.23,175.71c.18-1.58-.47-2.85-1.68-3.83-1.21.98-1.86,2.25-1.68,3.83h3.36Z"/>
  <path class="cls-3" d="M227.1,154.13l2.45,6.91c-1.69.47-4.06,1.79-4.61,3.6-.37,1.22-.45,6.65-.2,7.94.14.76,1.79,2.61,2.39,2.88,1.54.69,4.27-.64,4.31,1.68-2.8-.11-4.05,2.74-4.81,5.03-1.54,4.57-1.79,11.98,1.45,15.87,5.82,6.99,13.05,1.74,14.64-5.53l1.21-.26c2.38,2.73-1,5.2-1.41,8.22-.51,3.73-.59,14.3,4.72,14.08.35-.24.8-4.91,2.43-5.24.88,5.15,1.39,10.47-5.46,7.63-5.04-2.09-20.35-15.51-24.75-19.87-2.43-2.41-3.03-2.62-2.35-6.19,1.79-9.37,3.84-18.5,5.19-27.93.16-1.08.27-7.58.54-7.86l4.27-.97Z"/>
  <path class="cls-3" d="M236.23,175.71h-3.36c-.18-1.58.47-2.85,1.68-3.83,1.21.98,1.86,2.25,1.68,3.83Z"/>
  <path d="M54.58,161.44c-.61.59-.51,3.58-.83,4.69-1.53,5.33-7.66,9.86-12.74,6.01-5.95-4.5-5.76-13.27-2.46-19.31,2.85-5.21,6.98-6.24,11.77-2.59,1.7-2.02,3.9-2.45,5.84-.47.26.26,2.08,3.34,2.14,3.64.27,1.43-1.04,6.57-2.15,7.45-.45.36-1.29.31-1.56.57Z"/>
  <path d="M51.72,265.81c-2.15-2.38-3.32-10.84-3.04-14.04.55-6.24,5.66-10.38,11.81-7.94s6.29,12.31,4.76,17.8-9.64,8.48-13.53,4.17Z"/>
  <path d="M153.23,75.37c-.96.66-2.83-1.4-3.12-2.35-.53-1.75-1.54-7.96-1.65-9.87-.05-.77.49-1.58.49-2.4-.03-5.24-.54-12.98,1.18-18.02.99-2.9,3.58-2.42,4.35.48,1.75,6.65,1.64,20.22.73,27.16-.22,1.65-1.7,3.28-1.96,5ZM150.38,49.96c-.75,2.29-.78,5.15.71,7.19,2.07-1.83,2.6-6.53-.71-7.19Z"/>
  <path d="M160.46,52.84v.35c-.01-.12-.01-.23-.01-.35h.01Z"/>
  <path d="M173.52,105.28c-.16.13-1.8,3.1-1.98,3.54-.78,1.86-1.51,4.03-.92,6.08,1.02,3.51,10.4,2.02,8.69-3.42-.45-1.42-1.08-2.26-2.68-1.93-.81.17-2.78,2.38-3.22.63-.74-2.93,6-5.44,8.25-1.99,2.1,3.22,1.31,6.55-.65,9.62-4.32,6.74-16.04,3.1-13.8-6.13.61-2.53,2.52-7.73,5.13-8.78.86-.35,4.06-1.06,4.42.12.63,2.03-2.52,1.7-3.23,2.28Z"/>
  <path d="M68.22,36.62c3.12-.93,6.94,1.16,7.3,4.51.4,3.68-3,9.96-7.19,8.61-4.84-1.56-3.9-11.99-.12-13.12Z"/>
  <path d="M36.56,259.32c7.35-2.26,7.88,14.48.15,11.18-4.11-1.75-3.08-10.28-.15-11.18Z"/>
  <path d="M38.98,189.5c-1.32,1.06-3.89.64-4.88-.86-2.54-3.85,1.88-8.47,5.73-5.26.67,1.15.18,5.29-.85,6.12Z"/>
  <path class="cls-2" d="M150.38,49.96c3.31.66,2.79,5.36.71,7.19-1.5-2.03-1.47-4.9-.71-7.19Z"/>
  <path class="cls-3" d="M135.09,93.93c3.77-3.55,10.5-6.5,15.15-8.84,11.53-5.8,24.87-11.45,37.94-6.97,3.31,1.13,3.77,2.91,8.37,1.96,2.94-.61,10.49-9.67,12.55-12.4,12.18-16.16,19.86-35.37,23.66-55.04.21-1.08.98-8.48.58-8.77-3.02.04-5.72,1.47-8.53,2.25-20.29,5.57-41.29,10.64-61.57,16.14-18.57,5.04-37.71,9.89-56.49,14.51-6.53,1.61-17.47,5.23-23.71,4.48-5.44-.65-6.84-5.19-6.09-9.99-3.15-.22-5.56-2.2-7.62-4.36-.95,3.18-2.87,6.07-4.07,9.13-.76,1.95-.97,4.85-2.05,6.58-.31.49.02.84-1.07.61-1.77-5.78-3.86-11.58-3.37-17.76-.75-1.02-4.77,11.26-4.36,12.24,0,1.12,1.63,1.08,2.3,1.82,4.4,4.89,6.18,16.76,5.39,23.11-.6,4.88-4.99,8.93-2.37,13.94l-2.44,14.35c4.08.93,4.42,5.02,3.85,8.67-.63,4.01-5.4,1.91-5.72,3.4l2.32,2.98c.27,1.79-2.43,3.69-.84,6.08.44.65,1.35.77,1.77,1.59,1.26,2.5,1.44,10.81.85,13.6-.4,1.88-4.25,6.41-5.99,6.96-3.34,1.04-4.54-.22-6.99-1.7-.38-.23-.46-.87-.96-.01-2.49,4.25,1.95,5.06,1.09,8.29-.18.7-1.46,2.35-2.12,2.72-1.3.73-1.86-.08-2.71.12-2.72.65-7.75,16.64-9.82,19.47-.95,2.6,1.99,3.74,2.27,6.17.31,2.64-1.74,4.94-2.86,7.16l-5.3-.03-2.86,6.5c2.62-.26,4.84,2.07,5.43,4.41.39,1.53.02,6.35-.7,7.77-1.04,2.07-2.84,2.45-4.98,2.24-4.18-.43-3.38-3.63-4.31-3.85-1.34-.32-1.69,3.44-1.67,4.32.2.19,4.66.29,5.44.56.36.13,3.11,3.12,3.44,3.76,3.38,6.51,2.4,19.54-6.36,21.03-5.25.89-8.49-5.91-9.95-9.98-3.16,2.91.74,6.16,1.17,8.9.25,1.6.18,5.01.05,6.71-.6,7.71-5.02,11.39-6.74,1.66-.7-.09-.86,1.26-.91,1.72-.24,2.18-.61,8.34,2.96,7.79,1.33-.2,7.04-3.42,8.36-4.38,10.57-7.75,21.11-18.15,31.07-26.74,5.31-4.58,11-10.59,16.39-14.79,1.17-.91,2.86-1.82,3.96-.28,2.8,3.9-7.47,7.03-7.68,10.52-.1,1.59,1.15,4.02,1.43,5.82.25,1.65-.28,3.38.28,5,1.16,1.93,6.24-.55,5.47,6.9-.5,4.81-2.61,5.75-7.1,4.66-2.5,7.75-12.35,14.42-19.72,8.37-1.65-1.35-2.59-3.67-3.6-4.56-.61-.53-.82-.62-1.66-.5-1.68,6.68.88,5.03,3.84,7.92,1.94,1.89,3.34,6.35,2.77,9.02-.18.82-1.74,4.67-2.19,5.49-3.4,6.21-8.46,5.26-11.83-.37-1.08-1.81-.81-5.34-3.15-3.1-.47.45-3.13,3.98-3.25,4.45-.54,2.18,2.45,5.28,3.51,7.31,3.14,5.99,5.85,12.56,7.51,19.12l10.88.5c.92-3.14.52-7.05,3.4-9.31,2.68-2.11,7.24-.69,8.86,2.22.98,1.76.4,3.49,1,4.76.84,1.8,3.36.26,4.85.05,3.52-.48,7.05-.78,10.45-2.02,2.18-1.4,1.99-11.33,8.79-8.7,2.07.8,4.31,4,5.59,3.94,1.51-.07,7.18-2.32,9.02-3.02,3.74-1.42,9.57-4.7,13.19-5.52,1.54-.35,3.27.17,4.69-.11,1.06-.21,1.35-1.22,2.41-1.43,19.58-3.8,39.6-1.2,59.05,1.37,2.64.35,5.89.21,8.46.65,5.91,1.02,12.83,4.17,18.94,5.04,9.68,1.39,29.49.57,31.56-11.85.74-4.44-3.16-12.87-6.19-16.18-2.58-2.81-8.45-6.14-12.18-6.77-4.01-.68-9.17,1.15-12.1-2.75.82-1,1.27-1.53,2.59-1.71,5.03-.68,9.98.6,14.83,1.43,2.44-.68-1.36-5.32-2.32-6.22-1.66-1.57-7.72-4.8-9.94-5.41-2.43-.67-14.82-1.63-15.24-3.01-.14-.58.06-1.01.42-1.44,1.37-1.65,10.28.03,13.02-.89.97-.32,2.19-2.12,2.76-3,5.58-8.68,10.76-38.15,11.59-48.88,1.72-22.14,1.06-48.84-14.55-66.31-17.9-20.03-35.7-15.54-57.34-4.2l-12.83,8.31c-3.41-1.54-.97-3.71.85-5.42ZM163.31,41.59s.05-.06.08-.09c.08-.08.16-.14.24-.16.67-.12,1.28.23,1.75.72.3.32.55.69.72,1.05,2.46,5.13,2.09,23.6-.13,28.93-.09.21-.19.41-.3.61-.29.52-.65.97-1.2,1.28-.65.11-1.19-.55-1.63-1.49-.73-1.56-1.16-3.88-1.3-4.62-.34-1.8-.57-3.66-.72-5.54-.01-.15-.02-.31-.03-.46-.04-.46-.07-.91-.1-1.37-.03-.42-.05-.84-.07-1.27,0-.18-.02-.36-.03-.54-.09-1.96-.12-3.91-.14-5.79,0,0,0,0,0,0h0c-.01-.14-.01-.28-.01-.43,0-2.64.48-4.97,1.23-6.35.16-.73.37-1.52.6-2.25.03-.08.05-.16.08-.24.04-.13.09-.25.13-.38.03-.09.07-.19.1-.27.05-.13.1-.24.15-.36.05-.1.09-.2.14-.29.06-.11.11-.22.17-.32.03-.05.06-.1.09-.14.05-.08.11-.15.16-.21ZM150.12,42.74c.99-2.9,3.58-2.42,4.35.48,1.75,6.65,1.64,20.22.73,27.16-.22,1.65-1.7,3.28-1.96,5-.96.66-2.83-1.4-3.12-2.35-.53-1.75-1.54-7.96-1.65-9.87-.05-.77.49-1.58.49-2.4-.03-5.24-.54-12.98,1.18-18.02ZM38.98,189.5c-1.32,1.06-3.89.64-4.88-.86-2.54-3.85,1.88-8.47,5.73-5.26.67,1.15.18,5.29-.85,6.12ZM56.14,160.86c-.45.36-1.29.31-1.56.57-.61.59-.51,3.58-.83,4.69-1.53,5.33-7.66,9.86-12.74,6.01-5.95-4.5-5.76-13.27-2.46-19.31,2.85-5.21,6.98-6.24,11.77-2.59,1.7-2.02,3.9-2.45,5.84-.47.26.26,2.08,3.34,2.14,3.64.27,1.43-1.04,6.57-2.15,7.45ZM36.71,270.5c-4.11-1.75-3.08-10.28-.15-11.18,7.35-2.26,7.88,14.48.15,11.18ZM65.25,261.64c-1.47,5.28-9.64,8.48-13.53,4.17-2.15-2.38-3.32-10.84-3.04-14.04.55-6.24,5.66-10.38,11.81-7.94,6.18,2.46,6.29,12.31,4.76,17.8ZM68.34,49.74c-4.84-1.56-3.9-11.99-.12-13.12,3.12-.93,6.94,1.16,7.3,4.51.4,3.68-3,9.96-7.19,8.61ZM167.2,111.66c.61-2.53,2.52-7.73,5.13-8.78.86-.35,4.06-1.06,4.42.12.63,2.03-2.52,1.7-3.23,2.28-.16.13-1.8,3.1-1.98,3.54-.78,1.86-1.51,4.03-.92,6.08,1.02,3.51,10.4,2.02,8.69-3.42-.45-1.42-1.08-2.26-2.68-1.93-.81.17-2.78,2.38-3.22.63-.74-2.93,6-5.44,8.25-1.99,2.1,3.22,1.31,6.55-.65,9.62-4.32,6.74-16.04,3.1-13.8-6.13Z"/>
  <path d="M160.46,52.84v.35c-.01-.12-.01-.23-.01-.35h.01Z"/>
  <ellipse class="cls-2" cx="163.53" cy="53.39" rx="1.4" ry="3.43"/>
  <path class="cls-1" d="M166.1,43.11c-.43-.9-1.37-1.96-2.47-1.76-.71.2-1.51,2.67-1.94,4.66,0,.01,0,.01,0,.02-.75,1.38-1.24,3.72-1.24,6.38,0,.15,0,.29.01.43v.35c.06,4.79.21,9.93,1.09,14.63.22,1.18,1.19,6.41,2.92,6.11.75-.43,1.17-1.12,1.5-1.89,2.22-5.33,2.59-23.8.13-28.93ZM163.53,56.83c-.78,0-1.4-1.54-1.4-3.43s.63-3.43,1.4-3.43,1.4,1.54,1.4,3.43-.63,3.43-1.4,3.43Z"/>
</svg>