<?xml version="1.0" encoding="UTF-8"?>
<svg id="Layer_1" data-name="Layer 1" xmlns="http://www.w3.org/2000/svg" viewBox="0 0 672.59 464.22">
  <defs>
    <style>
      .cls-1 {
        fill: #fff200;
      }

      .cls-1, .cls-2 {
        opacity: .98;
      }

      .cls-2 {
        fill: #00aeef;
      }
    </style>
  </defs>
  <path class="cls-1" d="M352.84,315.47c-5.79.42-15.7-6.64-23.72-18.74-10.54-15.91-21.98-28.88-36.54-30.41-11.32-1.19-23.26,8.59-26.98,12.15-8.08-6.07-17.88-9.63-28.44-9.63-.73,0-1.45.03-2.17.06v-68.22h-.14c0-.09.01-.18.01-.27,0-9.97-9.11-18.61-22.44-22.93v-21.32h7.02c9.98,0,18.07-5.66,18.07-12.64s-8.09-12.64-18.07-12.64h-4.71l-20.02-56.6c8.82-.48,15.83-7.76,15.83-16.7,0-1.45-.2-2.86-.55-4.2-1.87,7.21-8.4,12.54-16.19,12.54s-14.33-5.33-16.19-12.54c-.35,1.35-.55,2.75-.55,4.2,0,8.94,7.01,16.22,15.83,16.7l-20.02,56.6h-3.33c-.06,0-.12,0-.18,0-9.98,0-18.07,5.66-18.07,12.64s8.09,12.64,18.07,12.64c.06,0,.12,0,.18,0h0s5.11,0,5.11,0v21.04c-13.82,4.22-23.33,13.03-23.33,23.21,0,.09,0,.18.01.27h-.14v40.93c-1.46-.74-2.97-1.66-4.51-2.8v-56.18c4.78-1.85,8.17-6.47,8.17-11.9,0-7.05-5.72-12.77-12.77-12.77s-12.77,5.72-12.77,12.77c0,5.43,3.39,10.05,8.17,11.9v46.75c-3.42-4.68-6.69-10.74-9.51-18.59-5.96-16.6-26.47-43.57-39.49-51.49-13.33-8.1-39.23-14.96-41.09-15.96l-.02-.13s-.01,0-.02,0l-5.1-15.92c-.44-1.36-2.39-1.24-2.66.16l-2.25,10.05s-2.72,3.66-4.13,6.47c-1.4,2.81-11.11,28.26-12.51,35.79-1.4,7.53-4.86,11.01-5.45,12.13-2,3.79-4.26,12-4.51,14.94s-5.36,7.91-6.13,11.62c-.77,3.7-5.36,5.36-4.47,8.17s4.72,5.49,4.98,7.28c.26,1.79,7.53,3.15,10.34,2.51s2.98-2.08,3.91-2.43c2.89-1.06,3.7-2.47,4.33-3.15,3.01-3.25,2.86-2.51,4.77-5.06,1.91-2.55.43-4.04,2.47-5.4,3.73-2.19,15.6-15.92,23.57-18.26,12.85-.17,20.4,48.88,19.66,64.51-.73,15.4-.17,42.72,3.15,56v35.4h75.57v56.17l-25.19,3.06s-5.11,4.77-4.09,11.74c1.02,6.98,11.23,5.28,11.23,5.28l31.66-10.55h2.89v10.55h16.51v-76.26h17.7v85.79s-14.98,1.36-23.15,3.4c-8.17,2.04-6.81,7.49-6.47,12.94.34,5.45,4.43,4.09,13.96,3.4s27.23-10.55,27.23-10.55h4.26v10.55h15.83v-105.53h52.09v-35.4h-.02c-.24-16.76-7.4-31.69-18.51-41.54,7.67-2.25,13.56-1.32,20.44,2.48,8.14,4.49,12.77,11.23,17.74,21.32,4.98,10.09,19.88,18.6,25.53,19.28,13.22,1.58,27.75-9.22,20.3-8.68ZM39.82,180.66c-2.68,0-4.85-2.31-4.85-5.17,0-.68.13-1.33.36-1.93l9.23,3.02c-.47,2.33-2.41,4.08-4.74,4.08ZM198.51,155.64c1.62,0,2.94,1.31,2.94,2.94s-1.31,2.94-2.94,2.94-2.94-1.31-2.94-2.94,1.31-2.94,2.94-2.94ZM189.06,155.64c1.62,0,2.94,1.31,2.94,2.94s-1.31,2.94-2.94,2.94-2.94-1.31-2.94-2.94,1.31-2.94,2.94-2.94ZM187.87,167.72h11.83c.96,0,1.74.78,1.74,1.74s-.78,1.74-1.74,1.74h-11.83c-.96,0-1.74-.78-1.74-1.74s.78-1.74,1.74-1.74ZM201.7,198.53c0,3.81-3.09,6.89-6.89,6.89h-2.04c-3.81,0-6.89-3.09-6.89-6.89v-21.19h15.83v21.19Z"/>
  <path class="cls-2" d="M340.05,270.78c5.66-.67,20.55-9.19,25.53-19.28,4.98-10.09,9.61-16.83,17.74-21.32,6.88-3.8,12.78-4.72,20.44-2.48-11.11,9.85-18.27,24.78-18.51,41.54h-.02v35.4s52.09,0,52.09,0v94.98s0,10.55,0,10.55h15.83s0-10.55,0-10.55h4.26s17.7,9.87,27.23,10.55c9.53.68,13.62,2.04,13.96-3.4.34-5.45,1.7-10.89-6.47-12.94-8.17-2.04-23.15-3.4-23.15-3.4v-85.79h17.7v65.7s0,10.55,0,10.55h16.51s0-10.55,0-10.55h2.89s31.66,10.55,31.66,10.55c0,0,10.21,1.7,11.23-5.28,1.02-6.98-4.09-11.74-4.09-11.74l-25.19-3.06v-56.17h75.57s0-35.4,0-35.4c3.32-13.28,3.88-40.6,3.15-56-.74-15.63,6.81-64.68,19.66-64.51,7.98,2.34,19.84,16.06,23.57,18.26,2.04,1.36.55,2.85,2.47,5.4,1.91,2.55,1.76,1.82,4.77,5.06.63.68,1.44,2.09,4.33,3.15.93.34,1.11,1.79,3.91,2.43s10.09-.72,10.34-2.51c.26-1.79,4.09-4.47,4.98-7.28.89-2.81-3.7-4.47-4.47-8.17-.77-3.7-5.87-8.68-6.13-11.62s-2.51-11.15-4.51-14.94c-.59-1.12-4.04-4.6-5.45-12.13-1.4-7.53-11.11-32.98-12.51-35.79-1.4-2.81-4.13-6.47-4.13-6.47l-2.25-10.05c-.27-1.4-2.23-1.51-2.66-.16l-5.1,15.92s-.01,0-.02,0l-.02.13c-1.86,1-27.76,7.85-41.09,15.96-13.02,7.91-33.53,34.89-39.49,51.49-2.82,7.85-6.09,13.91-9.51,18.59v-46.75c4.78-1.85,8.17-6.47,8.17-11.9,0-7.05-5.72-12.77-12.77-12.77s-12.77,5.72-12.77,12.77c0,5.43,3.39,10.05,8.17,11.9v56.18c-1.54,1.13-3.06,2.06-4.51,2.8v-40.93s-.14,0-.14,0c0-.09.01-.18.01-.27,0-10.19-9.51-18.99-23.33-23.21v-21.04h5.11s0,0,0,0c.06,0,.12,0,.18,0,9.98,0,18.07-5.66,18.07-12.64,0-6.98-8.09-12.64-18.07-12.64-.06,0-.12,0-.18,0h0s-3.33,0-3.33,0l-20.02-56.6c8.82-.48,15.83-7.76,15.83-16.7,0-1.45-.2-2.86-.55-4.2-1.87,7.21-8.4,12.54-16.19,12.54s-14.33-5.33-16.19-12.54c-.35,1.35-.55,2.75-.55,4.2,0,8.94,7.01,16.22,15.83,16.7l-20.02,56.6h-4.71c-9.98,0-18.07,5.66-18.07,12.64,0,6.98,8.09,12.64,18.07,12.64h7.02v21.32c-13.34,4.32-22.44,12.96-22.44,22.93,0,.09,0,.18.01.27h-.14s0,68.22,0,68.22c-.72-.03-1.44-.06-2.17-.06-10.56,0-20.36,3.56-28.44,9.63-3.72-3.56-15.66-13.34-26.98-12.15-14.55,1.53-25.99,14.49-36.54,30.41-8.02,12.1-17.93,19.16-23.72,18.74-7.45-.54,7.08,10.26,20.3,8.68ZM628.03,123.21l9.23-3.02c.23.6.36,1.24.36,1.93,0,2.86-2.17,5.17-4.85,5.17-2.33,0-4.27-1.75-4.74-4.08ZM477.01,105.2c0,1.62-1.31,2.94-2.94,2.94s-2.94-1.31-2.94-2.94,1.31-2.94,2.94-2.94,2.94,1.31,2.94,2.94ZM486.46,105.2c0,1.62-1.31,2.94-2.94,2.94s-2.94-1.31-2.94-2.94,1.31-2.94,2.94-2.94,2.94,1.31,2.94,2.94ZM486.46,116.1c0,.96-.78,1.74-1.74,1.74h-11.83c-.96,0-1.74-.78-1.74-1.74s.78-1.74,1.74-1.74h11.83c.96,0,1.74.78,1.74,1.74ZM470.89,123.97h15.83v21.19c0,3.81-3.09,6.89-6.89,6.89h-2.04c-3.81,0-6.89-3.09-6.89-6.89v-21.19Z"/>
</svg>