<?xml version="1.0" encoding="UTF-8"?>
<svg id="Layer_1" data-name="Layer 1" xmlns="http://www.w3.org/2000/svg" viewBox="0 0 612 792">
  <defs>
    <style>
      .cls-1 {
        stroke: #231f20;
      }

      .cls-1, .cls-2 {
        fill: none;
        stroke-linejoin: bevel;
      }

      .cls-2 {
        stroke: #ed1c24;
        stroke-width: 2px;
      }
    </style>
  </defs>
  <polygon class="cls-1" points="93.9 34.4 190.5 130.8 93.9 228.7 134.6 130.9 93.9 34.4"/>
  <polygon class="cls-1" points="150.9 34.4 247.6 130.8 150.9 228.7 191.7 130.9 150.9 34.4"/>
  <polygon class="cls-1" points="207.9 34.4 304.6 130.8 207.9 228.7 248.7 130.9 207.9 34.4"/>
  <polygon class="cls-1" points="265 34.4 361.6 130.8 265 228.7 305.7 130.9 265 34.4"/>
  <polygon class="cls-1" points="322 34.4 418.7 130.8 322 228.7 362.8 130.9 322 34.4"/>
  <polygon class="cls-1" points="379 34.4 475.7 130.8 379 228.7 419.8 130.9 379 34.4"/>
  <polygon class="cls-1" points="436.1 34.4 532.7 130.8 436.1 228.7 476.8 130.9 436.1 34.4"/>
  <polygon class="cls-1" points="493.1 34.4 589.8 130.8 493.1 228.7 533.9 130.9 493.1 34.4"/>
  <polygon class="cls-1" points="93.9 228.7 190.5 325.2 93.9 423 134.6 325.3 93.9 228.7"/>
  <polygon class="cls-1" points="150.9 228.7 247.6 325.2 150.9 423 191.7 325.3 150.9 228.7"/>
  <polygon class="cls-1" points="207.9 228.7 304.6 325.2 207.9 423 248.7 325.3 207.9 228.7"/>
  <polygon class="cls-1" points="265 228.7 361.6 325.2 265 423 305.7 325.3 265 228.7"/>
  <polygon class="cls-1" points="322 228.7 418.7 325.2 322 423 362.8 325.3 322 228.7"/>
  <polygon class="cls-1" points="379 228.7 475.7 325.2 379 423 419.8 325.3 379 228.7"/>
  <polygon class="cls-1" points="436.1 228.7 532.7 325.2 436.1 423 476.8 325.3 436.1 228.7"/>
  <polygon class="cls-1" points="493.1 228.7 589.8 325.2 493.1 423 533.9 325.3 493.1 228.7"/>
  <polygon class="cls-1" points="93.9 423 190.5 519.5 93.9 617.4 134.6 519.6 93.9 423"/>
  <polygon class="cls-1" points="150.9 423 247.6 519.5 150.9 617.4 191.7 519.6 150.9 423"/>
  <polygon class="cls-1" points="207.9 423 304.6 519.5 207.9 617.4 248.7 519.6 207.9 423"/>
  <polygon class="cls-1" points="265 423 361.6 519.5 265 617.4 305.7 519.6 265 423"/>
  <polygon class="cls-1" points="322 423 418.7 519.5 322 617.4 362.8 519.6 322 423"/>
  <polygon class="cls-1" points="379 423 475.7 519.5 379 617.4 419.8 519.6 379 423"/>
  <polygon class="cls-1" points="436.1 423 532.7 519.5 436.1 617.4 476.8 519.6 436.1 423"/>
  <polygon class="cls-1" points="493.1 423 589.8 519.5 493.1 617.4 533.9 519.6 493.1 423"/>
  <polyline class="cls-1" points="134.6 713.9 93.9 617.4 190.5 713.8"/>
  <polyline class="cls-1" points="191.7 713.9 150.9 617.4 247.6 713.8"/>
  <polyline class="cls-1" points="248.7 713.9 207.9 617.4 304.6 713.8"/>
  <polyline class="cls-1" points="305.7 713.9 265 617.4 361.6 713.8"/>
  <polyline class="cls-1" points="362.8 713.9 322 617.4 418.7 713.8"/>
  <polyline class="cls-1" points="419.8 713.9 379 617.4 475.7 713.8"/>
  <polyline class="cls-1" points="476.8 713.9 436.1 617.4 532.7 713.8"/>
  <polyline class="cls-1" points="589.8 713.8 493.1 617.4 533.9 713.9"/>
  <polygon class="cls-2" points="35.7 34.4 76.7 130.9 35.7 228.7 76.7 325.3 35.7 423 76.7 519.6 35.7 617.4 76.7 713.9 76.7 713.9 591 713.9 591 713.9 550.1 617.4 591 519.5 550.1 423 591 325.3 550.1 228.7 591 130.8 550.1 34.4 35.7 34.4"/>
  <polyline class="cls-1" points="36.7 34.4 133.4 130.8 36.7 228.7"/>
  <polyline class="cls-1" points="36.7 228.7 133.4 325.2 36.7 423"/>
  <polyline class="cls-1" points="36.7 423 133.4 519.5 36.7 617.4"/>
  <line class="cls-1" x1="132.4" y1="713.9" x2="35.7" y2="617.4"/>
  <line class="cls-1" x1="74.6" y1="130.9" x2="591.2" y2="130.9"/>
  <line class="cls-1" x1="35.7" y1="228.7" x2="552.3" y2="228.7"/>
  <line class="cls-1" x1="74.4" y1="325.3" x2="591" y2="325.3"/>
  <line class="cls-1" x1="35.6" y1="423" x2="552.2" y2="423"/>
  <line class="cls-1" x1="74.4" y1="519.6" x2="591" y2="519.6"/>
  <line class="cls-1" x1="35.6" y1="617.4" x2="552.2" y2="617.4"/>
</svg>