<?xml version="1.0" encoding="UTF-8"?>
<svg id="Layer_1" data-name="Layer 1" xmlns="http://www.w3.org/2000/svg" viewBox="0 0 612 792">
  <defs>
    <style>
      .cls-1 {
        stroke: #ed1c24;
      }

      .cls-1, .cls-2 {
        fill: none;
        stroke-linejoin: bevel;
      }

      .cls-2 {
        stroke: #231f20;
      }
    </style>
  </defs>
  <polygon class="cls-2" points="582.5 34.4 485.8 130.8 582.5 228.7 541.7 130.9 582.5 34.4"/>
  <polygon class="cls-2" points="525.4 34.4 428.8 130.8 525.4 228.7 484.7 130.9 525.4 34.4"/>
  <polygon class="cls-2" points="468.4 34.4 371.7 130.8 468.4 228.7 427.6 130.9 468.4 34.4"/>
  <polygon class="cls-2" points="411.4 34.4 314.7 130.8 411.4 228.7 370.6 130.9 411.4 34.4"/>
  <polygon class="cls-2" points="354.3 34.4 257.7 130.8 354.3 228.7 313.6 130.9 354.3 34.4"/>
  <polygon class="cls-2" points="297.3 34.4 200.6 130.8 297.3 228.7 256.5 130.9 297.3 34.4"/>
  <polygon class="cls-2" points="240.3 34.4 143.6 130.8 240.3 228.7 199.5 130.9 240.3 34.4"/>
  <polygon class="cls-2" points="183.2 34.4 86.6 130.8 183.2 228.7 142.5 130.9 183.2 34.4"/>
  <polygon class="cls-2" points="126.2 34.4 29.5 130.8 126.2 228.7 85.4 130.9 126.2 34.4"/>
  <polygon class="cls-2" points="582.5 228.7 485.8 325.2 582.5 423 541.7 325.3 582.5 228.7"/>
  <polygon class="cls-2" points="525.4 228.7 428.8 325.2 525.4 423 484.7 325.3 525.4 228.7"/>
  <polygon class="cls-2" points="468.4 228.7 371.7 325.2 468.4 423 427.6 325.3 468.4 228.7"/>
  <polygon class="cls-2" points="411.4 228.7 314.7 325.2 411.4 423 370.6 325.3 411.4 228.7"/>
  <polygon class="cls-2" points="354.3 228.7 257.7 325.2 354.3 423 313.6 325.3 354.3 228.7"/>
  <polygon class="cls-2" points="297.3 228.7 200.6 325.2 297.3 423 256.5 325.3 297.3 228.7"/>
  <polygon class="cls-2" points="240.3 228.7 143.6 325.2 240.3 423 199.5 325.3 240.3 228.7"/>
  <polygon class="cls-2" points="183.2 228.7 86.6 325.2 183.2 423 142.5 325.3 183.2 228.7"/>
  <polygon class="cls-2" points="126.2 228.7 29.5 325.2 126.2 423 85.4 325.3 126.2 228.7"/>
  <polygon class="cls-2" points="582.5 423 485.8 519.5 582.5 617.4 541.7 519.6 582.5 423"/>
  <polygon class="cls-2" points="525.4 423 428.8 519.5 525.4 617.4 484.7 519.6 525.4 423"/>
  <polygon class="cls-2" points="468.4 423 371.7 519.5 468.4 617.4 427.6 519.6 468.4 423"/>
  <polygon class="cls-2" points="411.4 423 314.7 519.5 411.4 617.4 370.6 519.6 411.4 423"/>
  <polygon class="cls-2" points="354.3 423 257.7 519.5 354.3 617.4 313.6 519.6 354.3 423"/>
  <polygon class="cls-2" points="297.3 423 200.6 519.5 297.3 617.4 256.5 519.6 297.3 423"/>
  <polygon class="cls-2" points="240.3 423 143.6 519.5 240.3 617.4 199.5 519.6 240.3 423"/>
  <polygon class="cls-2" points="183.2 423 86.6 519.5 183.2 617.4 142.5 519.6 183.2 423"/>
  <polygon class="cls-2" points="126.2 423 29.5 519.5 126.2 617.4 85.4 519.6 126.2 423"/>
  <polyline class="cls-2" points="485.8 713.8 582.5 617.4 541.7 713.9 29.5 713.9 70.3 617.4 582.5 617.4"/>
  <polyline class="cls-2" points="484.7 713.9 525.4 617.4 428.8 713.8"/>
  <polyline class="cls-2" points="427.6 713.9 468.4 617.4 371.7 713.8"/>
  <polyline class="cls-2" points="370.6 713.9 411.4 617.4 314.7 713.8"/>
  <polyline class="cls-2" points="313.6 713.9 354.3 617.4 257.7 713.8"/>
  <polyline class="cls-2" points="256.5 713.9 297.3 617.4 200.6 713.8"/>
  <polyline class="cls-2" points="199.5 713.9 240.3 617.4 143.6 713.8"/>
  <polyline class="cls-2" points="142.5 713.9 183.2 617.4 86.6 713.8"/>
  <line class="cls-2" x1="70.3" y1="228.7" x2="29.5" y2="130.9"/>
  <line class="cls-2" x1="70.3" y1="423" x2="29.5" y2="325.3"/>
  <line class="cls-2" x1="70.3" y1="617.4" x2="29.5" y2="519.6"/>
  <polyline class="cls-2" points="541.7 130.9 29.5 130.9 70.3 34.4 582.5 34.4"/>
  <polyline class="cls-2" points="541.7 325.3 29.5 325.3 70.3 228.7 582.5 228.7"/>
  <polyline class="cls-2" points="541.7 519.6 29.5 519.6 70.3 423 582.5 423"/>
  <polyline class="cls-2" points="85.4 713.9 126.2 617.4 29.5 713.8 29.5 713.8"/>
  <polygon class="cls-1" points="70.3 34.4 29.5 130.8 70.3 228.7 29.5 325.2 70.3 423 29.5 519.5 70.3 617.4 29.5 713.8 541.7 713.9 582.5 617.4 541.7 519.6 582.5 423 541.7 325.3 582.5 228.7 541.7 130.9 582.5 34.4 70.3 34.4"/>
</svg>