<?xml version="1.0" encoding="UTF-8"?>
<svg id="Layer_1" data-name="Layer 1" xmlns="http://www.w3.org/2000/svg" viewBox="0 0 612 792">
  <defs>
    <style>
      .cls-1 {
        stroke: #231f20;
      }

      .cls-1, .cls-2 {
        fill: none;
        stroke-linejoin: bevel;
      }

      .cls-2 {
        stroke: #ed1c24;
        stroke-width: 2px;
      }
    </style>
  </defs>
  <polygon class="cls-1" points="525.6 34.4 428.9 130.8 525.6 228.7 484.8 130.9 525.6 34.4"/>
  <polygon class="cls-1" points="468.6 34.4 371.9 130.8 468.6 228.7 427.8 130.9 468.6 34.4"/>
  <polygon class="cls-1" points="411.5 34.4 314.8 130.8 411.5 228.7 370.8 130.9 411.5 34.4"/>
  <polygon class="cls-1" points="354.5 34.4 257.8 130.8 354.5 228.7 313.7 130.9 354.5 34.4"/>
  <polygon class="cls-1" points="297.5 34.4 200.8 130.8 297.5 228.7 256.7 130.9 297.5 34.4"/>
  <polygon class="cls-1" points="240.4 34.4 143.7 130.8 240.4 228.7 199.7 130.9 240.4 34.4"/>
  <polygon class="cls-1" points="183.4 34.4 86.7 130.8 183.4 228.7 142.6 130.9 183.4 34.4"/>
  <polygon class="cls-1" points="126.3 34.4 29.7 130.8 126.3 228.7 85.6 130.9 126.3 34.4"/>
  <polygon class="cls-1" points="525.6 228.7 428.9 325.2 525.6 423 484.8 325.3 525.6 228.7"/>
  <polygon class="cls-1" points="468.6 228.7 371.9 325.2 468.6 423 427.8 325.3 468.6 228.7"/>
  <polygon class="cls-1" points="411.5 228.7 314.8 325.2 411.5 423 370.8 325.3 411.5 228.7"/>
  <polygon class="cls-1" points="354.5 228.7 257.8 325.2 354.5 423 313.7 325.3 354.5 228.7"/>
  <polygon class="cls-1" points="297.5 228.7 200.8 325.2 297.5 423 256.7 325.3 297.5 228.7"/>
  <polygon class="cls-1" points="240.4 228.7 143.7 325.2 240.4 423 199.7 325.3 240.4 228.7"/>
  <polygon class="cls-1" points="183.4 228.7 86.7 325.2 183.4 423 142.6 325.3 183.4 228.7"/>
  <polygon class="cls-1" points="126.3 228.7 29.7 325.2 126.3 423 85.6 325.3 126.3 228.7"/>
  <polygon class="cls-1" points="525.6 423 428.9 519.5 525.6 617.4 484.8 519.6 525.6 423"/>
  <polygon class="cls-1" points="468.6 423 371.9 519.5 468.6 617.4 427.8 519.6 468.6 423"/>
  <polygon class="cls-1" points="411.5 423 314.8 519.5 411.5 617.4 370.8 519.6 411.5 423"/>
  <polygon class="cls-1" points="354.5 423 257.8 519.5 354.5 617.4 313.7 519.6 354.5 423"/>
  <polygon class="cls-1" points="297.5 423 200.8 519.5 297.5 617.4 256.7 519.6 297.5 423"/>
  <polygon class="cls-1" points="240.4 423 143.7 519.5 240.4 617.4 199.7 519.6 240.4 423"/>
  <polygon class="cls-1" points="183.4 423 86.7 519.5 183.4 617.4 142.6 519.6 183.4 423"/>
  <polygon class="cls-1" points="126.3 423 29.7 519.5 126.3 617.4 85.6 519.6 126.3 423"/>
  <polyline class="cls-1" points="484.8 713.9 525.6 617.4 428.9 713.8"/>
  <polyline class="cls-1" points="427.8 713.9 468.6 617.4 371.9 713.8"/>
  <polyline class="cls-1" points="370.8 713.9 411.5 617.4 314.8 713.8"/>
  <polyline class="cls-1" points="313.7 713.9 354.5 617.4 257.8 713.8"/>
  <polyline class="cls-1" points="256.7 713.9 297.5 617.4 200.8 713.8"/>
  <polyline class="cls-1" points="199.7 713.9 240.4 617.4 143.7 713.8"/>
  <polyline class="cls-1" points="142.6 713.9 183.4 617.4 86.7 713.8"/>
  <polyline class="cls-1" points="47.2 757.6 29.7 713.8 126.3 617.4 85.6 713.9"/>
  <line class="cls-1" x1="560.2" y1="757.6" x2="541.9" y2="713.9"/>
  <polygon class="cls-2" points="583.7 34.4 542.9 130.9 583.7 228.7 542.9 325.3 583.7 423 542.9 519.6 583.7 617.4 542.9 713.9 561.2 757.6 48 757.6 29.7 713.9 70.5 617.4 29.7 519.5 70.5 423 29.7 325.3 70.5 228.7 29.7 130.8 70.5 34.4 583.7 34.4"/>
  <polyline class="cls-1" points="583.7 34.4 487.1 130.8 583.7 228.7"/>
  <polyline class="cls-1" points="583.7 228.7 487.1 325.2 583.7 423"/>
  <polyline class="cls-1" points="583.7 423 487.1 519.5 583.7 617.4"/>
  <line class="cls-1" x1="487.1" y1="713.9" x2="583.7" y2="617.4"/>
  <line class="cls-1" x1="544.9" y1="130.9" x2="28.3" y2="130.9"/>
  <line class="cls-1" x1="583.7" y1="228.7" x2="67.1" y2="228.7"/>
  <line class="cls-1" x1="545" y1="325.3" x2="28.4" y2="325.3"/>
  <line class="cls-1" x1="583.9" y1="423" x2="67.3" y2="423"/>
  <line class="cls-1" x1="545" y1="519.6" x2="28.4" y2="519.6"/>
  <line class="cls-1" x1="583.9" y1="617.4" x2="67.3" y2="617.4"/>
  <line class="cls-1" x1="545" y1="713.9" x2="28.4" y2="713.9"/>
</svg>